<?xml version="1.0" encoding="utf-8"?>
<!-- Generator: Adobe Illustrator 26.0.1, SVG Export Plug-In . SVG Version: 6.00 Build 0)  -->
<svg version="1.1" id="Layer_1" xmlns="http://www.w3.org/2000/svg" xmlns:xlink="http://www.w3.org/1999/xlink" x="0px" y="0px"
	 viewBox="0 0 1900 900" style="enable-background:new 0 0 1900 900;" xml:space="preserve">
<style type="text/css">
	.st0{fill:#BAA67D;}
	.st1{opacity:0.18;}
	.st2{fill:#754C24;}
	.st3{fill:#E1BF85;stroke:#231F20;stroke-miterlimit:10;}
	.st4{fill:#FFFFFF;stroke:#231F20;stroke-miterlimit:10;}
	.st5{fill:none;stroke:#231F20;stroke-miterlimit:10;}
	.st6{fill:#2C318B;stroke:#231F20;stroke-miterlimit:10;}
</style>
<g>
	<g>
		<path class="st0" d="M1900.32,271.45v757.18H4.5V314.12c0.16,0.05,0.31,0.1,0.46,0.13c56.18,16.98,115.31-40.78,169.74-12.02
			c12.89,6.81,24.74,18.23,37.63,25.08c46.64,24.9,96.09-12.87,144.77-22.28c59.57-11.51,120.53,20.02,179.45,1.52
			c19.31-6.08,38-17.44,57.51-21.43c12.86-2.63,25.87-2.01,38.82-1.29c55.01,3.04,109.99,7.68,164.97,12.33
			c11.79,1,23.57,1.99,35.35,2.99c48.8,4.13,97.62,8.26,146.47,10.21c59.88,2.38,119.79,1.5,179.67-0.75
			c27.21-1.01,54.54-2.34,81.32-10.4c29.07-8.75,57.09-25.31,86.02-35.32c68.38-23.63,139.41-9.88,208.07,11.38
			c39.27,12.17,78.26,26.75,116.87,43.72c24.43,10.75,50.48,22.41,74.49,9.34c17.69-9.62,32.41-31.94,50.62-38.44
			C1818.52,273.98,1868.1,317.83,1900.32,271.45z"/>
	</g>
	<g id="wet_beach" class="st1">
		<path class="st2" d="M1900.5,1237.5c-65.62-29.64-120.79-76.59-216.29-93.38c-84.36-14.83-117.8-23.97-197.38,9.88
			c-25.36,10.8-156.2-55.66-173.69-32.93c-71.15,92.39-103.56,70.77-209.22-12.07c-19.41-15.22-78.01,17.18-100.66,8.78
			c-78.4-29.09-154.26-52.48-232.9-24.15c-78.66,28.3-160.66,35.6-235.86-2.2c-60.12-30.21-101.01,13.71-165.8-1.1
			c-23.83-5.44-48.89-5.62-73.03-2.2c-82.32,11.69-214.82,42.3-291.13,77.93l1.18-528.62c38.06-21.77,109.8-92.64,173.47-26.81
			c54.86,56.73,143.06-50.8,217.5-61.71c36.58-5.36,77.58-7.06,106.24,18.28c17.17,15.2,27.41,38.27,44.84,53.1
			c41.03,34.84,100.28,11.3,147.14-13.31c53.88-28.33,107.75-56.66,161.63-84.96c61.75-32.46,138.53-6.55,196.58-46.9
			c74.21-51.59,106,75.98,174.29,80.7c26.88,1.86,53.18-8.45,79.17-16.3c66.37-20.01,135.52-29.11,204.38-26.86
			c11.48,0.37,23.42,1.18,33.56,7.09c12.32,7.14,20.2,20.64,29.23,32.25c22.79,29.32,58.37,49.05,93.2,43
			c47.03-8.19,87.34-60.16,133.31-46.59c35.16,10.38,60.41,57.6,96.2,50.04L1900.5,1237.5z"/>
	</g>
</g>
<g>
	<rect x="242.84" y="278.4" class="st3" width="231.45" height="161.55"/>
	<path class="st4" d="M386.14,439.95h-55.14v-56.23c0-3.69,2.99-6.68,6.68-6.68h41.97c3.59,0,6.49,2.91,6.49,6.49V439.95z"/>
	<rect x="171.39" y="173.54" class="st3" width="71.45" height="266.4"/>
	<rect x="474.29" y="173.54" class="st3" width="71.45" height="266.4"/>
	<path class="st4" d="M525.34,238.79H494.7v-31.24c0-2.05,1.66-3.71,3.71-3.71h23.32c1.99,0,3.61,1.62,3.61,3.61V238.79z"/>
	<polygon class="st3" points="257.75,172.57 206.27,172.57 154.78,172.57 180.53,127.99 206.27,83.41 232.01,127.99 	"/>
	<polygon class="st3" points="561.5,172.57 510.02,172.57 458.54,172.57 484.28,127.99 510.02,83.41 535.76,127.99 	"/>
	<path class="st3" d="M284.11,278.1h-35.01c-3.02,0-5.5-2.47-5.5-5.5v-35.01c0-3.02,2.47-5.5,5.5-5.5h35.01c3.02,0,5.5,2.47,5.5,5.5
		v35.01C289.6,275.63,287.13,278.1,284.11,278.1z"/>
	<path class="st4" d="M335.6,240.95v28.3c0,0.89-0.13,1.75-0.38,2.56c-0.25-0.81-0.38-1.67-0.38-2.56v-28.3
		c0-0.89,0.13-1.75,0.38-2.56C335.47,239.2,335.6,240.06,335.6,240.95z"/>
	<path class="st3" d="M422.12,278.1H387.1c-3.02,0-5.5-2.47-5.5-5.5v-35.01c0-3.02,2.47-5.5,5.5-5.5h35.01c3.02,0,5.5,2.47,5.5,5.5
		v35.01C427.61,275.63,425.14,278.1,422.12,278.1z"/>
	<path class="st3" d="M468.12,278.1h-35.01c-3.02,0-5.5-2.47-5.5-5.5v-35.01c0-3.02,2.47-5.5,5.5-5.5h35.01c3.02,0,5.5,2.47,5.5,5.5
		v35.01C473.61,275.63,471.14,278.1,468.12,278.1z"/>
	<line class="st5" x1="206.27" y1="32.97" x2="206.27" y2="83.41"/>
	<line class="st5" x1="510.02" y1="37.26" x2="510.02" y2="87.7"/>
	<polygon class="st6" points="207,70.1 185.54,57.98 164.08,45.87 185.3,33.34 206.52,20.81 206.76,45.45 	"/>
	<polygon class="st6" points="509.28,70.1 509.28,45.45 509.28,20.81 530.62,33.13 551.97,45.45 530.62,57.77 	"/>
	<path class="st4" d="M303.99,383.4c1.17-0.45,1.72-1.47,1.72-2.48c0-0.59-0.18-1.17-0.53-1.65h0.03l-3.37-6.01l-2.21-3.94
		l-5.06-9.02c-2.33-4.15-6.49-6.23-10.64-6.23s-8.31,2.08-10.64,6.23l-5.58,9.95l-2.72,4.86l-1.45,2.58
		c-0.39,0.69-0.93,1.31-1.61,1.7c-0.86,0.49-1.3,1.41-1.3,2.33c0,1.05,0.59,2.1,1.82,2.53c1.18,0.4,1.82,1.47,1.82,2.55
		c0,0.82-0.37,1.64-1.15,2.19c-2.2,1.54-1.01,4.89,1.5,4.89c0.15,0,0.3-0.01,0.46-0.04c1.72-0.27,3.11,1.1,3.11,2.65
		c0,0.41-0.1,0.83-0.31,1.23c-1.01,1.96,0.57,3.93,2.39,3.93c0.53,0,1.08-0.16,1.59-0.55c0.5-0.37,1.05-0.53,1.59-0.53
		c1.38,0,2.68,1.09,2.7,2.67c0.01,1.68,1.36,2.67,2.72,2.67c0.94,0,1.88-0.48,2.39-1.52c0.49-1.01,1.45-1.52,2.42-1.52
		c0.93,0,1.86,0.47,2.37,1.42c1.32,2.48,5.06,1.51,5.06-1.26c0-0.04,0-0.07,0-0.1c-0.07-2.19,2.38-3.55,4.19-2.31
		c1.92,1.31,4.21-0.24,4.21-2.21c0-0.44-0.11-0.89-0.37-1.34c-1.03-1.82,0.31-4.01,2.32-4.01c0.11,0,0.21,0.01,0.32,0.02
		c1.81,0.21,3-1.24,3-2.71c0-0.83-0.38-1.67-1.24-2.22c-0.84-0.53-1.24-1.4-1.24-2.25C302.28,384.87,302.87,383.84,303.99,383.4z"/>
	<path class="st4" d="M451.04,383.4c1.17-0.45,1.72-1.47,1.72-2.48c0-0.59-0.18-1.17-0.53-1.65h0.03l-3.37-6.01l-2.21-3.94
		l-5.06-9.02c-2.33-4.15-6.49-6.23-10.64-6.23s-8.31,2.08-10.64,6.23l-5.58,9.95l-2.72,4.86l-1.45,2.58
		c-0.39,0.69-0.93,1.31-1.61,1.7c-0.86,0.49-1.3,1.41-1.3,2.33c0,1.05,0.59,2.1,1.82,2.53c1.18,0.4,1.82,1.47,1.82,2.55
		c0,0.82-0.37,1.64-1.15,2.19c-2.2,1.54-1.01,4.89,1.5,4.89c0.15,0,0.3-0.01,0.46-0.04c1.72-0.27,3.11,1.1,3.11,2.65
		c0,0.41-0.1,0.83-0.31,1.23c-1.01,1.96,0.57,3.93,2.39,3.93c0.53,0,1.08-0.16,1.59-0.55c0.5-0.37,1.05-0.53,1.59-0.53
		c1.38,0,2.68,1.09,2.7,2.67c0.01,1.68,1.36,2.67,2.72,2.67c0.94,0,1.88-0.48,2.39-1.52c0.49-1.01,1.45-1.52,2.42-1.52
		c0.93,0,1.86,0.47,2.37,1.42c1.32,2.48,5.06,1.51,5.06-1.26c0-0.04,0-0.07,0-0.1c-0.07-2.19,2.38-3.55,4.19-2.31
		c1.92,1.31,4.21-0.24,4.21-2.21c0-0.44-0.11-0.89-0.37-1.34c-1.03-1.82,0.31-4.01,2.32-4.01c0.11,0,0.21,0.01,0.32,0.02
		c1.81,0.21,3-1.24,3-2.71c0-0.83-0.38-1.67-1.24-2.22c-0.84-0.53-1.24-1.4-1.24-2.25C449.33,384.87,449.92,383.84,451.04,383.4z"/>
	<path class="st4" d="M534.95,332.4c1.17-0.45,1.72-1.47,1.72-2.48c0-0.59-0.18-1.17-0.53-1.65h0.03l-3.37-6.01l-2.21-3.94
		l-5.06-9.02c-2.33-4.15-6.49-6.23-10.64-6.23c-4.15,0-8.31,2.08-10.64,6.23l-5.58,9.95l-2.72,4.86l-1.45,2.58
		c-0.39,0.69-0.93,1.31-1.61,1.7c-0.86,0.49-1.3,1.41-1.3,2.33c0,1.05,0.59,2.1,1.82,2.53c1.18,0.4,1.82,1.47,1.82,2.55
		c0,0.82-0.37,1.64-1.15,2.19c-2.2,1.54-1.01,4.89,1.5,4.89c0.15,0,0.3-0.01,0.46-0.04c1.72-0.27,3.11,1.1,3.11,2.65
		c0,0.41-0.1,0.83-0.31,1.23c-1.01,1.96,0.57,3.93,2.39,3.93c0.53,0,1.08-0.16,1.59-0.55c0.5-0.37,1.05-0.53,1.59-0.53
		c1.38,0,2.68,1.09,2.7,2.67c0.01,1.68,1.36,2.67,2.72,2.67c0.94,0,1.88-0.48,2.39-1.52c0.49-1.01,1.45-1.52,2.42-1.52
		c0.93,0,1.86,0.47,2.37,1.42c1.32,2.48,5.06,1.51,5.06-1.26c0-0.04,0-0.07,0-0.1c-0.07-2.19,2.38-3.55,4.19-2.31
		c1.92,1.31,4.21-0.24,4.21-2.21c0-0.44-0.11-0.89-0.37-1.34c-1.03-1.82,0.31-4.01,2.32-4.01c0.11,0,0.21,0.01,0.32,0.02
		c1.81,0.21,3-1.24,3-2.71c0-0.83-0.38-1.67-1.24-2.22c-0.84-0.53-1.24-1.4-1.24-2.25C533.23,333.87,533.83,332.84,534.95,332.4z"/>
	<path class="st4" d="M223.84,336.08c1.17-0.45,1.72-1.47,1.72-2.48c0-0.59-0.18-1.17-0.53-1.65h0.03l-3.37-6.01l-2.21-3.94
		l-5.06-9.02c-2.33-4.15-6.49-6.23-10.64-6.23c-4.15,0-8.31,2.08-10.64,6.23l-5.58,9.95l-2.72,4.86l-1.45,2.58
		c-0.39,0.69-0.93,1.31-1.61,1.7c-0.86,0.49-1.3,1.41-1.3,2.33c0,1.05,0.59,2.1,1.82,2.53c1.18,0.4,1.82,1.47,1.82,2.55
		c0,0.82-0.37,1.64-1.15,2.19c-2.2,1.54-1.01,4.89,1.5,4.89c0.15,0,0.3-0.01,0.46-0.04c1.72-0.27,3.11,1.1,3.11,2.65
		c0,0.41-0.1,0.83-0.31,1.23c-1.01,1.96,0.57,3.93,2.39,3.93c0.53,0,1.08-0.16,1.59-0.55c0.5-0.37,1.05-0.53,1.59-0.53
		c1.38,0,2.68,1.09,2.7,2.67c0.01,1.68,1.36,2.67,2.72,2.67c0.94,0,1.88-0.48,2.39-1.52c0.49-1.01,1.45-1.52,2.42-1.52
		c0.93,0,1.86,0.47,2.37,1.42c1.32,2.48,5.06,1.51,5.06-1.26c0-0.04,0-0.07,0-0.1c-0.07-2.19,2.38-3.55,4.19-2.31
		c1.92,1.31,4.21-0.24,4.21-2.21c0-0.44-0.11-0.89-0.37-1.34c-1.03-1.82,0.31-4.01,2.32-4.01c0.11,0,0.21,0.01,0.32,0.02
		c1.81,0.21,3-1.24,3-2.71c0-0.83-0.38-1.67-1.24-2.22c-0.84-0.53-1.24-1.4-1.24-2.25C222.13,337.55,222.72,336.51,223.84,336.08z"
		/>
	<path class="st4" d="M221.19,203.84h-28.11c-0.71,0-1.28,0.57-1.28,1.28v33.67h30.64v-33.71
		C222.43,204.39,221.88,203.84,221.19,203.84z"/>
	<path class="st3" d="M376.13,277.95h-35.01c-3.02,0-5.5-2.47-5.5-5.5v-35.01c0-3.02,2.47-5.5,5.5-5.5h35.01
		c3.02,0,5.5,2.47,5.5,5.5v35.01C381.62,275.47,379.15,277.95,376.13,277.95z"/>
	<path class="st3" d="M330.27,277.95h-35.01c-3.02,0-5.5-2.47-5.5-5.5v-35.01c0-3.02,2.47-5.5,5.5-5.5h35.01
		c3.02,0,5.5,2.47,5.5,5.5v35.01C335.77,275.47,333.3,277.95,330.27,277.95z"/>
</g>
</svg>
