<?xml version="1.0" encoding="utf-8"?>
<!-- Generator: Adobe Illustrator 26.0.1, SVG Export Plug-In . SVG Version: 6.00 Build 0)  -->
<svg version="1.1" id="Layer_1" xmlns="http://www.w3.org/2000/svg" xmlns:xlink="http://www.w3.org/1999/xlink" x="0px" y="0px"
	 viewBox="0 0 1900 900" style="enable-background:new 0 0 1900 900;" xml:space="preserve">
<style type="text/css">
	.st0{fill:#659DBD;}
</style>
<g id="Bottom_4">
	<path class="st0" d="M-3.5,32.49V899.5h1917V81.35c-0.16,0.06-0.31,0.11-0.47,0.15c-56.81,19.45-116.6-46.69-171.64-13.76
		c-13.03,7.8-25.02,20.87-38.05,28.72c-47.16,28.52-97.16-14.74-146.39-25.51c-60.24-13.18-121.88,22.93-181.46,1.74
		c-19.53-6.96-38.42-19.97-58.15-24.53c-13-3.01-26.16-2.3-39.25-1.48c-55.63,3.48-111.22,8.79-166.81,14.12
		c-11.92,1.14-23.83,2.28-35.75,3.42c-49.35,4.73-98.71,9.46-148.11,11.69c-60.55,2.73-121.13,1.72-181.68-0.86
		c-27.51-1.16-55.15-2.67-82.23-11.91c-29.4-10.02-57.73-28.98-86.98-40.45C507.4-4.37,435.58,11.38,366.15,35.72
		c-39.71,13.93-79.14,30.63-118.18,50.06c-24.7,12.3-51.04,25.66-75.32,10.7c-17.89-11.01-32.77-36.58-51.19-44.02
		C79.21,35.39,29.08,85.59-3.5,32.49z"/>
</g>
</svg>
