<?xml version="1.0" encoding="utf-8"?>
<!-- Generator: Adobe Illustrator 25.4.1, SVG Export Plug-In . SVG Version: 6.00 Build 0)  -->
<svg version="1.1" id="Layer_1" xmlns="http://www.w3.org/2000/svg" xmlns:xlink="http://www.w3.org/1999/xlink" x="0px" y="0px"
	 viewBox="0 0 174.24 145.16" style="enable-background:new 0 0 174.24 145.16;" xml:space="preserve">
<style type="text/css">
	.st0{fill:#E2C086;stroke:#000000;stroke-miterlimit:10;}
	.st1{fill:#FFFFFF;stroke:#000000;stroke-miterlimit:10;}
	.st2{fill:none;stroke:#000000;stroke-miterlimit:10;}
	.st3{fill:#2C318C;stroke:#000000;stroke-miterlimit:10;}
</style>
<rect x="60.53" y="83.51" class="st0" width="55.29" height="38.59"/>
<path class="st1" d="M94.76,122.1H81.59v-8.35c0-3.69,2.99-6.68,6.68-6.68h0c3.59,0,6.49,2.91,6.49,6.49V122.1z"/>
<rect x="43.46" y="58.46" class="st0" width="17.07" height="63.64"/>
<rect x="115.82" y="58.46" class="st0" width="17.07" height="63.64"/>
<path class="st1" d="M128.02,74.05h-7.32v-4.64c0-2.05,1.66-3.71,3.71-3.71h0c1.99,0,3.61,1.62,3.61,3.61V74.05z"/>
<polygon class="st0" points="64.09,58.23 51.79,58.23 39.49,58.23 45.64,47.58 51.79,36.93 57.94,47.58 "/>
<polygon class="st0" points="136.65,58.23 124.36,58.23 112.06,58.23 118.21,47.58 124.36,36.93 130.51,47.58 "/>
<path class="st1" d="M66.2,83.44L66.2,83.44c-3.02,0-5.5-2.47-5.5-5.5v0c0-3.02,2.47-5.5,5.5-5.5h0c3.02,0,5.5,2.47,5.5,5.5v0
	C71.7,80.96,69.23,83.44,66.2,83.44z"/>
<path class="st1" d="M93.62,74.56v6.76c0,1.16-0.95,2.12-2.12,2.12h-6.76c-0.95,0-1.76-0.64-2.02-1.5c0.06-0.19,0.09-0.4,0.09-0.61
	v-6.76c0-0.21-0.03-0.42-0.09-0.61c0.26-0.87,1.07-1.5,2.02-1.5h6.76C92.67,72.45,93.62,73.4,93.62,74.56z"/>
<path class="st1" d="M82.69,74.56v6.76c0,0.21-0.03,0.42-0.09,0.61c-0.06-0.19-0.09-0.4-0.09-0.61v-6.76c0-0.21,0.03-0.42,0.09-0.61
	C82.66,74.14,82.69,74.35,82.69,74.56z"/>
<path class="st1" d="M82.69,74.56v6.76c0,0.21-0.03,0.42-0.09,0.61c-0.26,0.87-1.07,1.5-2.03,1.5h-6.76c-1.16,0-2.12-0.95-2.12-2.12
	v-6.76c0-1.16,0.95-2.12,2.12-2.12h6.76c0.95,0,1.76,0.64,2.03,1.5C82.66,74.14,82.69,74.35,82.69,74.56z"/>
<path class="st1" d="M99.17,83.44L99.17,83.44c-3.02,0-5.5-2.47-5.5-5.5v0c0-3.02,2.47-5.5,5.5-5.5h0c3.02,0,5.5,2.47,5.5,5.5v0
	C104.67,80.96,102.2,83.44,99.17,83.44z"/>
<path class="st1" d="M110.16,83.44L110.16,83.44c-3.02,0-5.5-2.47-5.5-5.5v0c0-3.02,2.47-5.5,5.5-5.5h0c3.02,0,5.5,2.47,5.5,5.5v0
	C115.66,80.96,113.19,83.44,110.16,83.44z"/>
<line class="st2" x1="51.79" y1="24.88" x2="51.79" y2="36.93"/>
<line class="st2" x1="124.36" y1="25.9" x2="124.36" y2="37.95"/>
<polygon class="st3" points="51.97,33.75 46.84,30.85 41.71,27.96 46.78,24.96 51.85,21.97 51.91,27.86 "/>
<polygon class="st3" points="124.18,33.75 124.18,27.86 124.18,21.97 129.28,24.91 134.38,27.86 129.28,30.8 "/>
<path class="st1" d="M75.14,108.59c0.28-0.11,0.41-0.35,0.41-0.59c0-0.14-0.04-0.28-0.13-0.39h0.01l-0.81-1.44l-0.53-0.94
	l-1.21-2.15c-0.56-0.99-1.55-1.49-2.54-1.49c-0.99,0-1.98,0.5-2.54,1.49l-1.33,2.38l-0.65,1.16l-0.35,0.62
	c-0.09,0.17-0.22,0.31-0.39,0.41c-0.2,0.12-0.31,0.34-0.31,0.56c0,0.25,0.14,0.5,0.43,0.6c0.28,0.1,0.44,0.35,0.44,0.61
	c0,0.2-0.09,0.39-0.27,0.52c-0.52,0.37-0.24,1.17,0.36,1.17c0.04,0,0.07,0,0.11-0.01c0.41-0.06,0.74,0.26,0.74,0.63
	c0,0.1-0.02,0.2-0.07,0.29c-0.24,0.47,0.14,0.94,0.57,0.94c0.13,0,0.26-0.04,0.38-0.13c0.12-0.09,0.25-0.13,0.38-0.13
	c0.33,0,0.64,0.26,0.64,0.64c0,0.4,0.33,0.64,0.65,0.64c0.22,0,0.45-0.11,0.57-0.36c0.12-0.24,0.35-0.36,0.58-0.36
	c0.22,0,0.44,0.11,0.57,0.34c0.32,0.59,1.21,0.36,1.21-0.3c0-0.01,0-0.02,0-0.02c-0.02-0.52,0.57-0.85,1-0.55
	c0.46,0.31,1.01-0.06,1.01-0.53c0-0.1-0.03-0.21-0.09-0.32c-0.25-0.43,0.07-0.96,0.55-0.96c0.03,0,0.05,0,0.08,0
	c0.43,0.05,0.72-0.3,0.72-0.65c0-0.2-0.09-0.4-0.3-0.53c-0.2-0.13-0.3-0.33-0.3-0.54C74.73,108.95,74.87,108.7,75.14,108.59z"/>
<path class="st1" d="M110.27,108.59c0.28-0.11,0.41-0.35,0.41-0.59c0-0.14-0.04-0.28-0.13-0.39h0.01l-0.81-1.44l-0.53-0.94
	l-1.21-2.15c-0.56-0.99-1.55-1.49-2.54-1.49c-0.99,0-1.98,0.5-2.54,1.49l-1.33,2.38l-0.65,1.16l-0.35,0.62
	c-0.09,0.17-0.22,0.31-0.39,0.41c-0.2,0.12-0.31,0.34-0.31,0.56c0,0.25,0.14,0.5,0.43,0.6c0.28,0.1,0.44,0.35,0.44,0.61
	c0,0.2-0.09,0.39-0.27,0.52c-0.52,0.37-0.24,1.17,0.36,1.17c0.04,0,0.07,0,0.11-0.01c0.41-0.06,0.74,0.26,0.74,0.63
	c0,0.1-0.02,0.2-0.07,0.29c-0.24,0.47,0.14,0.94,0.57,0.94c0.13,0,0.26-0.04,0.38-0.13c0.12-0.09,0.25-0.13,0.38-0.13
	c0.33,0,0.64,0.26,0.64,0.64c0,0.4,0.33,0.64,0.65,0.64c0.22,0,0.45-0.11,0.57-0.36c0.12-0.24,0.35-0.36,0.58-0.36
	c0.22,0,0.44,0.11,0.57,0.34c0.32,0.59,1.21,0.36,1.21-0.3c0-0.01,0-0.02,0-0.02c-0.02-0.52,0.57-0.85,1-0.55
	c0.46,0.31,1.01-0.06,1.01-0.53c0-0.1-0.03-0.21-0.09-0.32c-0.25-0.43,0.07-0.96,0.55-0.96c0.03,0,0.05,0,0.08,0
	c0.43,0.05,0.72-0.3,0.72-0.65c0-0.2-0.09-0.4-0.3-0.53c-0.2-0.13-0.3-0.33-0.3-0.54C109.86,108.95,110,108.7,110.27,108.59z"/>
<path class="st1" d="M130.31,96.41c0.28-0.11,0.41-0.35,0.41-0.59c0-0.14-0.04-0.28-0.13-0.39h0.01l-0.81-1.44l-0.53-0.94
	l-1.21-2.15c-0.56-0.99-1.55-1.49-2.54-1.49s-1.98,0.5-2.54,1.49l-1.33,2.38l-0.65,1.16l-0.35,0.62c-0.09,0.17-0.22,0.31-0.39,0.41
	c-0.2,0.12-0.31,0.34-0.31,0.56c0,0.25,0.14,0.5,0.43,0.6c0.28,0.1,0.44,0.35,0.44,0.61c0,0.2-0.09,0.39-0.27,0.52
	c-0.52,0.37-0.24,1.17,0.36,1.17c0.04,0,0.07,0,0.11-0.01c0.41-0.06,0.74,0.26,0.74,0.63c0,0.1-0.02,0.2-0.07,0.29
	c-0.24,0.47,0.14,0.94,0.57,0.94c0.13,0,0.26-0.04,0.38-0.13c0.12-0.09,0.25-0.13,0.38-0.13c0.33,0,0.64,0.26,0.64,0.64
	c0,0.4,0.33,0.64,0.65,0.64c0.22,0,0.45-0.11,0.57-0.36c0.12-0.24,0.35-0.36,0.58-0.36c0.22,0,0.44,0.11,0.57,0.34
	c0.32,0.59,1.21,0.36,1.21-0.3c0-0.01,0-0.02,0-0.02c-0.02-0.52,0.57-0.85,1-0.55c0.46,0.31,1.01-0.06,1.01-0.53
	c0-0.1-0.03-0.21-0.09-0.32c-0.25-0.43,0.07-0.96,0.55-0.96c0.03,0,0.05,0,0.08,0c0.43,0.05,0.72-0.3,0.72-0.65
	c0-0.2-0.09-0.4-0.3-0.53c-0.2-0.13-0.3-0.33-0.3-0.54C129.9,96.76,130.04,96.52,130.31,96.41z"/>
<path class="st1" d="M55.99,97.29c0.28-0.11,0.41-0.35,0.41-0.59c0-0.14-0.04-0.28-0.13-0.39h0.01l-0.81-1.44l-0.53-0.94l-1.21-2.15
	c-0.56-0.99-1.55-1.49-2.54-1.49c-0.99,0-1.98,0.5-2.54,1.49l-1.33,2.38l-0.65,1.16l-0.35,0.62c-0.09,0.17-0.22,0.31-0.39,0.41
	c-0.2,0.12-0.31,0.34-0.31,0.56c0,0.25,0.14,0.5,0.43,0.6c0.28,0.1,0.44,0.35,0.44,0.61c0,0.2-0.09,0.39-0.27,0.52
	c-0.52,0.37-0.24,1.17,0.36,1.17c0.04,0,0.07,0,0.11-0.01c0.41-0.06,0.74,0.26,0.74,0.63c0,0.1-0.02,0.2-0.07,0.29
	c-0.24,0.47,0.14,0.94,0.57,0.94c0.13,0,0.26-0.04,0.38-0.13c0.12-0.09,0.25-0.13,0.38-0.13c0.33,0,0.64,0.26,0.64,0.64
	c0,0.4,0.33,0.64,0.65,0.64c0.22,0,0.45-0.11,0.57-0.36c0.12-0.24,0.35-0.36,0.58-0.36c0.22,0,0.44,0.11,0.57,0.34
	c0.32,0.59,1.21,0.36,1.21-0.3c0-0.01,0-0.02,0-0.02c-0.02-0.52,0.57-0.85,1-0.55c0.46,0.31,1.01-0.06,1.01-0.53
	c0-0.1-0.03-0.21-0.09-0.32c-0.25-0.43,0.07-0.96,0.55-0.96c0.03,0,0.05,0,0.08,0c0.43,0.05,0.72-0.3,0.72-0.65
	c0-0.2-0.09-0.4-0.3-0.53c-0.2-0.13-0.3-0.33-0.3-0.54C55.58,97.64,55.72,97.39,55.99,97.29z"/>
<path class="st1" d="M55.65,74.05h-7.32v-4.64c0-2.05,1.66-3.71,3.71-3.71h0c1.99,0,3.61,1.62,3.61,3.61V74.05z"/>
</svg>
