<?xml version="1.0" encoding="UTF-8" standalone="no"?>
<!-- Created with Inkscape (http://www.inkscape.org/) -->
<svg xmlns:inkscape="http://www.inkscape.org/namespaces/inkscape" xmlns:rdf="http://www.w3.org/1999/02/22-rdf-syntax-ns#" xmlns="http://www.w3.org/2000/svg" xmlns:xlink="http://www.w3.org/1999/xlink" xmlns:ns1="http://sozi.baierouge.fr" xmlns:cc="http://creativecommons.org/ns#" xmlns:sodipodi="http://sodipodi.sourceforge.net/DTD/sodipodi-0.dtd" xmlns:dc="http://purl.org/dc/elements/1.1/" id="svg2" xml:space="preserve" viewBox="0 0 50.699 181.5" version="1.1" inkscape:version="0.91 r13725">
  <g id="g10" transform="matrix(1.25 0 0 -1.25 0 181.5)">
    <g id="g12">
      <path id="path14" style="fill-rule:evenodd;fill:#494936" d="m7.742 1.356c-1.199 0.321-2.16 0.68-2.879 1.079-0.218 0.121-0.422 0.242-0.601 0.363h0.043c1.093-0.535 2.398-0.774 3.918-0.723 0.132-0.691 1-1.066 2.601-1.117l-0.242-0.16-0.039-0.039c-1.039 0.183-1.973 0.383-2.801 0.597zm-2.238 19.399c-1.039 0.16-1.973 0.43-2.801 0.801l-0.121 0.121c-0.051 0.027-0.094 0.066-0.117 0.117-0.297 0.269-0.551 0.574-0.762 0.922-0.16 0.293-0.305 0.625-0.441 1 1.203-0.508 2.922-0.762 5.16-0.762h7.562c0.957 0 2.387-0.023 4.278-0.078 0.773 0.027 1.906 0.211 3.402 0.559 1.574 0.347 2.719 0.546 3.441 0.601 0.532-0.133 1.239-0.133 2.118 0 1.812 0.32 2.746 0.481 2.8 0.481 0.266-0.934 0.321-2.934 0.161-6-0.133-2.668 0.121-4.52 0.757-5.563 0.188 0.695 0.293 1.867 0.321 3.52 0 1.519 0.16 2.707 0.48 3.562 0.563 1.52 1.414 2.957 2.563 4.32-0.082-1.574-0.094-3.761-0.043-6.562 0.027-3.094 0.027-5.293 0-6.598-0.028-1.523-0.559-2.801-1.598-3.84-0.133-0.136-1.336-1.027-3.602-2.683-1.812-1.305-4.242-2.039-7.281-2.199-0.773-0.051-3.504 0.027-8.199 0.242 1.066 0.078 2.094 0.238 3.082 0.48 1.25 0.321 2.852 0.907 4.797 1.758 0.695 0.293 1.48 0.629 2.359 1 0.618 0.348 1.121 0.934 1.524 1.762 0.558 1.172 0.879 2.613 0.957 4.316-0.028 2-0.039 3.508-0.039 4.524 0 1.89-0.309 3.089-0.918 3.597l0.398 0.121-3.762 1.079c-1.171-0.024-3.011-0.118-5.519-0.282-2.426-0.183-4.305-0.277-5.641-0.277-3.144 0-4.918-0.016-5.316-0.039zm-4.481 3.801h0.039l1.36 0.281 0.402-0.082-1.762-0.238h-0.039v0.039zm13.122 0.8 0.878 0.239c0.321 0.082 0.895 0.187 1.719 0.32 0.723 0.16 1.242 0.359 1.563 0.602 0.425 0.32 0.703 0.746 0.84 1.281 0.21 0.719 0.398 1.211 0.558 1.476 0.215 0.348 0.84 1.016 1.879 2 0.828 0.801 1.336 1.59 1.52 2.364 0.16 0.636 0.203 1.586 0.121 2.84-0.106 1.332-0.161 2.281-0.161 2.839 0 9.727 0.34 20.02 1.02 30.879-0.027-1.008 0.047-2.273 0.219-3.801 0.242-2.32 0.359-3.933 0.359-4.839v-8.118c0-2.855 0.016-4.429 0.043-4.718 0.106-1.922 0.438-3.364 1-4.321 1.012 0.477 1.559 1.2 1.641 2.161-0.082 1.25-0.094 2.25-0.043 3 0.375 5.492 0.562 9.57 0.562 12.238 0 9.281 0.184 20.332 0.559 33.16-0.801-3.227-1.852-8.121-3.16-14.68-0.321 2.774-0.426 6.332-0.321 10.68 0.161 4.801 0.243 8.359 0.243 10.68 0 8.984-0.188 16.347-0.563 22.078 0.16-1.172 0.617-2.918 1.363-5.238 0.719-2.243 1.145-3.989 1.278-5.243-0.211 4.59-0.344 8.055-0.399 10.403-0.105 4.132 0.082 7.531 0.559 10.199 0.48 0.055 1.254 0.066 2.32 0.039 1.016-0.023 1.789 0 2.32 0.082 0.266 2.16 0.083 3.812-0.558 4.961-0.586 1.066-1.856 2.09-3.801 3.078-1.094 0.641-1.922 1.121-2.48 1.441-1.039 0.586-1.918 0.973-2.641 1.161-0.828 0.183-1.973 0.238-3.441 0.16-2.344-0.137-3.532-0.203-3.559-0.203l1.402 0.601 0.039 0.039c0.239 0 0.52-0.011 0.84-0.039h0.321c0.156-0.008 0.324-0.012 0.5-0.019 0.035-0.004 0.066-0.004 0.097 0 0.157-0.008 0.317-0.024 0.481-0.039 1.297-0.082 2.976-0.239 5.043-0.461 0.769-0.696 2.16-1.293 4.16-1.801 1.918-0.481 3.316-1.16 4.199-2.039 0.984-0.961 1.652-2.266 2-3.922 0.426-2.106 0.828-3.492 1.199-4.16 0.188-0.321 0.442-0.758 0.758-1.321 0.27-0.476 0.469-0.906 0.602-1.277l0.281-2.281c0-0.426-0.055-0.762-0.16-1-0.11-0.32-0.348-0.68-0.723-1.078-0.371-0.43-0.598-0.735-0.68-0.922-0.293-0.906-0.371-2.293-0.238-4.16 0.16-2.078 0.172-3.492 0.039-4.239-0.531 0.747-1 1.825-1.398 3.239-0.508 1.894-0.84 3.027-1 3.398-0.563-1.359-0.973-3.25-1.242-5.68-0.161-1.359-0.372-3.332-0.641-5.917-0.316 1.011-0.531 2.347-0.641 4-0.05 1.894-0.105 3.281-0.156 4.16 0.078 1.812 0.117 3.226 0.117 4.238 0.028 1.894-0.238 3.242-0.801 4.043 0.055-5.363-0.105-9.734-0.476-13.121-0.082-0.668-0.188-2.641-0.32-5.922-0.215-3.094-0.614-4.934-1.204-5.52-0.292 0.879-0.503 1.934-0.636 3.161 0.051-3.868 0.011-7.094-0.121-9.68 0.824 0.746 1.547 2.215 2.16 4.398 0.851 2.907 1.359 4.535 1.519 4.883 0.321-0.64 0.426-1.613 0.321-2.922-0.11-1.625-0.133-2.625-0.082-3 0.746 0.989 1.441 2.414 2.082 4.282 0.558 1.734 0.918 3.332 1.078 4.8-0.184-2.695-0.254-5.75-0.199-9.16 0.054-1.789 0.171-4.816 0.359-9.082 0.082 1.734 0.375 3.176 0.883 4.32-0.028-2.558 0.051-6.171 0.238-10.839 0.188-4.985 0.281-8.598 0.281-10.84 0-1.602-0.043-4.012-0.121-7.239-0.051-2.906-0.012-5.32 0.121-7.242 0.051-0.64 0.227-1.508 0.52-2.597 0.32-1.176 0.508-2.043 0.558-2.602 0.133-0.988 0.176-2.266 0.121-3.84-0.027-0.851-0.066-2.133-0.121-3.84 0-0.507 0.028-1.293 0.082-2.359 0-0.961-0.027-1.75-0.082-2.359-0.05-0.59-0.144-1.629-0.281-3.121-0.183-1.36-0.465-2.375-0.84-3.04 0.11 2.747 0.055 6.598-0.16 11.559-0.133 3.199-0.226 5.852-0.277 7.961l-0.039-14.085c0-0.957 0.051-2.465 0.16-4.52 0.051-1.839-0.043-3.32-0.281-4.437-0.266-1.227-1-2.227-2.2-3-1.492-0.774-2.628-1.375-3.402-1.801-0.801-0.558-1.332-0.867-1.598-0.922-0.402-0.105-0.816 0.227-1.242 1-0.32 0.563-0.465 1.762-0.437 3.602 0.023 2.187 0 3.48-0.082 3.879-1.039 6.027-1.934 12.656-2.68 19.883 0.051-2.188 0.078-4.934 0.078-8.243l-0.078-8.199c0-1.226-0.133-3.332-0.402-6.32-0.16-2.746-0.024-4.813 0.402-6.199 0.215-0.668 0.586-1.133 1.121-1.399l-10.16 0.879-0.398 0.281v-0.004zm-4.762-22.64-0.199 0.242 1.238-0.203-1.039-0.039z" inkscape:connector-curvature="0"/>
      <path id="path16" style="fill-rule:evenodd;fill:#3e342b" d="m37.223 130.12c-0.133 0.371-0.332 0.797-0.602 1.277-0.316 0.563-0.57 1-0.758 1.321-0.371 0.668-0.773 2.054-1.199 4.16-0.348 1.652-1.016 2.961-2 3.922-0.883 0.879-2.281 1.558-4.199 2.039-2 0.504-3.391 1.105-4.16 1.801l0.636-0.043c1.282-0.133 2.321-0.305 3.121-0.52 0.934-0.238 1.907-0.613 2.922-1.117 0.399-0.215 1.024-0.523 1.879-0.922 0.774-0.398 1.36-0.762 1.758-1.078 0.777-0.617 1.387-0.906 1.844-0.883 0.133-0.105 0.305-1.039 0.519-2.801-0.027-2.398 0.051-4.757 0.239-7.078v-0.078zm0.281-2.281c0.027-0.266 0.051-0.535 0.078-0.801l0.039-0.281c0.055-1.117 0.07-2.293 0.043-3.52-0.027-1.304-0.016-3.453 0.039-6.437 0.055-2.746 0.039-4.883-0.039-6.403-0.266-4.32-0.375-7.679-0.32-10.078 0.054-3.679 0.414-6.949 1.082-9.8 0.449-2.055 0.719-4.829 0.797-8.321 0.109-3.945 0.269-6.679 0.48-8.199 0.481-3.414 0.762-5.949 0.84-7.602 0.055-1.574-0.039-3.597-0.277-6.078-0.321-3.148-0.496-5.148-0.52-6-0.055-1.226-0.082-3.519-0.082-6.882 0-2.852-0.055-5.106-0.16-6.758-0.078-1.254-0.172-2.922-0.281-5l-0.161-2.442-0.519-7.84c-0.078-0.828-0.316-1.519-0.719-2.078 0.403-0.402 0.625-0.949 0.68-1.644 0.055-0.399 0.066-1.039 0.043-1.918 0.051-3.414-0.121-6.438-0.52-9.082-0.293-1.896-0.562-3.15-0.8-3.763-0.481-1.227-1.282-2.148-2.403-2.758-1.89-1.043-3.531-1.828-4.918-2.363-1.734-0.664-3.468-1.078-5.199-1.238-3.68-0.321-5.734-0.493-6.16-0.52-2.32-0.105-4.375 0.027-6.16 0.399l-1.84 0.32 0.078 0.039 0.203 0.16c-1.601 0.055-2.469 0.43-2.601 1.121l1.48 0.16-0.32 0.481 1.039 0.039c1.148 0.055 2.199 0.039 3.16-0.039 4.695-0.215 7.426-0.293 8.199-0.242 3.043 0.16 5.469 0.894 7.281 2.199 2.266 1.656 3.469 2.551 3.602 2.683 1.039 1.039 1.57 2.317 1.598 3.84 0.027 1.305 0.027 3.508 0 6.598-0.051 2.801-0.039 4.988 0.043 6.562-1.149-1.359-2-2.8-2.563-4.32-0.32-0.851-0.48-2.039-0.48-3.562-0.028-1.653-0.133-2.825-0.321-3.516-0.636 1.039-0.89 2.891-0.757 5.559 0.16 3.066 0.105 5.066-0.161 6-0.054 0-0.988-0.161-2.8-0.481-0.879-0.133-1.586-0.133-2.118 0-0.722-0.055-1.867-0.254-3.441-0.601-1.492-0.348-2.629-0.532-3.402-0.559-1.891 0.055-3.321 0.082-4.278 0.082h-7.566c-2.238 0-3.957 0.254-5.16 0.758-0.051 0.137-0.094 0.281-0.117 0.441l-0.122 0.36h0.039l1.762 0.238c2.028 0.215 3.586 0.32 4.68 0.32 0.051 0 1.16 0.133 3.32 0.399 1.625 0.187 2.731 0.148 3.321-0.118l0.398-0.281 10.16-0.879c-0.535 0.266-0.906 0.735-1.121 1.399-0.426 1.386-0.559 3.453-0.398 6.199 0.265 2.988 0.398 5.094 0.398 6.32l0.082 8.203c0 3.305-0.027 6.051-0.082 8.239 0.75-7.227 1.641-13.852 2.68-19.883 0.082-0.399 0.109-1.692 0.082-3.879-0.028-1.84 0.121-3.039 0.441-3.598 0.426-0.773 0.84-1.109 1.238-1 0.27 0.051 0.801 0.36 1.602 0.918 0.773 0.426 1.906 1.028 3.398 1.801 1.2 0.773 1.934 1.773 2.2 3 0.242 1.117 0.336 2.602 0.281 4.441-0.106 2.051-0.16 3.559-0.16 4.516l0.039 14.082c0.055-2.105 0.148-4.758 0.281-7.961 0.215-4.957 0.27-8.812 0.16-11.558 0.375 0.668 0.653 1.679 0.84 3.039 0.133 1.496 0.227 2.535 0.281 3.121 0.055 0.613 0.082 1.398 0.082 2.359-0.054 1.066-0.082 1.852-0.082 2.359 0.055 1.707 0.094 2.989 0.121 3.84 0.051 1.575 0.012 2.856-0.121 3.84-0.05 0.563-0.238 1.43-0.558 2.602-0.293 1.093-0.469 1.961-0.52 2.601-0.133 1.918-0.176 4.332-0.121 7.239 0.082 3.226 0.121 5.64 0.121 7.238 0 2.242-0.094 5.855-0.281 10.844-0.188 4.664-0.266 8.277-0.242 10.839-0.504-1.148-0.797-2.589-0.879-4.32-0.188 4.266-0.305 7.293-0.36 9.078-0.054 3.414 0.012 6.469 0.2 9.16-0.16-1.464-0.52-3.066-1.078-4.8-0.641-1.868-1.336-3.293-2.082-4.278-0.051 0.371-0.028 1.371 0.082 3 0.105 1.305 0 2.278-0.321 2.918-0.16-0.347-0.668-1.972-1.519-4.879-0.614-2.187-1.336-3.652-2.16-4.402 0.132 2.59 0.171 5.816 0.117 9.684 0.133-1.227 0.347-2.282 0.64-3.161 0.586 0.586 0.989 2.426 1.2 5.52 0.136 3.277 0.242 5.25 0.32 5.918 0.375 3.387 0.535 7.762 0.48 13.121 0.563-0.801 0.828-2.148 0.801-4.039 0-1.016-0.039-2.426-0.121-4.242 0.055-0.879 0.109-2.266 0.16-4.16 0.11-1.653 0.321-2.985 0.641-4 0.269 2.586 0.48 4.562 0.64 5.921 0.266 2.426 0.68 4.321 1.243 5.68 0.16-0.375 0.492-1.508 1-3.402 0.398-1.41 0.863-2.492 1.398-3.238 0.133 0.746 0.121 2.16-0.039 4.238-0.133 1.867-0.055 3.254 0.238 4.16 0.082 0.187 0.309 0.496 0.68 0.922 0.375 0.398 0.613 0.762 0.723 1.078 0.101 0.242 0.156 0.574 0.156 1v0.004z" inkscape:connector-curvature="0"/>
      <path id="path18" style="fill-rule:evenodd;fill:#6f5c3b" d="m37.582 127.04c-0.027 0.266-0.051 0.535-0.078 0.801l-0.281 2.281v0.078c0.16-0.988 0.281-2.039 0.359-3.16zm0.961-101.64 0.519 7.84v-0.277c-0.16-3.048-0.332-5.568-0.519-7.568zm-33.68-22.965c0.719-0.399 1.68-0.758 2.879-1.079-0.32 0.055-0.504 0.098-0.558 0.122-0.907 0.261-1.68 0.582-2.321 0.957zm-2.121 13.683c-0.027 0.637-0.027 1.184 0 1.637v-1.637zm2.762 4.637-0.602-0.039-1.48-0.238c0.082 0.132 0.176 0.253 0.281 0.359-0.375 0.211-0.707 0.449-1 0.719 0.828-0.371 1.762-0.641 2.801-0.801zm6.719 123.36c1.386 0.559 2.558 0.891 3.519 1 0.375 0.024 0.789 0.039 1.242 0.039l-1.402-0.601c0.027 0 1.215 0.066 3.563 0.199 1.464 0.082 2.613 0.027 3.437-0.16 0.723-0.184 1.602-0.571 2.641-1.16 0.558-0.317 1.386-0.797 2.48-1.438 1.945-0.988 3.215-2.016 3.801-3.082 0.641-1.145 0.828-2.797 0.558-4.957-0.531-0.082-1.304-0.109-2.32-0.082-1.066 0.027-1.84 0.016-2.316-0.039-0.481-2.668-0.668-6.067-0.563-10.199 0.055-2.348 0.188-5.817 0.403-10.403-0.133 1.254-0.563 3-1.282 5.243-0.746 2.32-1.199 4.066-1.359 5.238 0.371-5.735 0.559-13.094 0.559-22.078 0-2.321-0.079-5.883-0.239-10.68-0.109-4.348 0-7.906 0.317-10.684 1.308 6.563 2.359 11.454 3.16 14.684-0.371-12.828-0.559-23.883-0.559-33.16 0-2.668-0.187-6.75-0.558-12.242-0.055-0.746-0.043-1.746 0.039-3-0.082-0.961-0.625-1.68-1.641-2.161-0.558 0.961-0.894 2.403-1 4.321-0.027 0.293-0.039 1.867-0.039 4.719v8.121c0 0.906-0.121 2.519-0.359 4.839-0.176 1.524-0.25 2.793-0.223 3.801-0.68-10.859-1.02-21.152-1.02-30.879 0-0.562 0.055-1.507 0.161-2.843 0.082-1.25 0.043-2.2-0.118-2.84-0.187-0.774-0.695-1.559-1.519-2.36-1.043-0.984-1.668-1.652-1.883-2-0.16-0.265-0.344-0.757-0.558-1.48-0.133-0.531-0.415-0.961-0.84-1.277-0.321-0.243-0.84-0.442-1.559-0.602-0.828-0.133-1.402-0.242-1.723-0.32l-0.878-0.239c-0.586 0.266-1.696 0.305-3.321 0.118-2.16-0.266-3.265-0.399-3.32-0.399-1.094 0-2.652-0.109-4.68-0.32l-0.398 0.078-1.36-0.277 2.516 0.64c0.426 0.16 1.094 0.52 2 1.078 0.856 0.508 1.508 0.829 1.961 0.961 0.371 0.106 1.055 0.121 2.039 0.039 0.828-0.05 1.496 0.067 2 0.36-2.105-0.078-3.801-0.117-5.078-0.117-2.402 0-3.629 0.57-3.68 1.718 0.641 0.426 1.504 0.668 2.598 0.719 0 0.774 0.094 1.895 0.281 3.359 0.188 1.547 0.281 2.696 0.281 3.442 0 1.734 0.067 4.012 0.2 6.84 0.187 3.441 0.293 5.718 0.32 6.84 0.211 9.253 0.332 14.32 0.359 15.199 0.188 5.816 0.465 10.867 0.84 15.16 0.852-2.453 1.465-5.758 1.84-9.918 0.215-2.32 0.453-5.668 0.719-10.043 0.16-1.68 0.652-4.957 1.48-9.84 0.696-4.183 1.094-7.492 1.199-9.918 0.028 3.68 0.309 9.399 0.84 17.16 0.508 7.52 0.762 13.239 0.762 17.16-0.055 12.719-0.078 20.586-0.078 23.598 0.023 8.906 0.199 16.774 0.519 23.602-0.136-0.934-0.507-2.321-1.121-4.16-0.773-3.415-1.254-6.172-1.441-8.282-0.211-2.32-0.613-5.785-1.199-10.398-0.106-1.227-0.266-3.305-0.481-6.238-0.293-2.618-0.773-4.618-1.437-6-0.27 1.464-0.375 3.359-0.321 5.679 0.133 2.559 0.2 4.453 0.2 5.68v12.199c0.078 1.867 0.105 3.266 0.078 4.199 0 1.653-0.211 3.028-0.641 4.121 0.027-0.562 0.043-3.148 0.043-7.761 0-2-0.176-5.039-0.519-9.117v18.316c-0.215 2.668-0.348 4.961-0.403 6.883-0.105 3.652 0.199 5.707 0.922 6.16 0.371-0.481 0.918-1.254 1.641-2.32 0.613-0.586 1.144-0.215 1.597 1.117 0.106 0.297 0.133 0.828 0.082 1.601-0.054 0.696 0.024 1.243 0.239 1.641 0.215 0.375 0.507 0.68 0.879 0.918 0.429 0.27 0.734 0.523 0.921 0.762 0.426 0.535 0.907 1.187 1.442 1.961 0.504 0.558 1.238 0.945 2.199 1.16 1.012 0.211 2.332 0.304 3.957 0.277 0.91-0.023 2.227-0.094 3.961-0.199-1.332 0.773-2.426 1.336-3.277 1.68-1.203 0.507-2.403 0.8-3.602 0.882-0.187 0.024-1.32 0.012-3.398-0.043-1.496-0.023-2.59 0.11-3.282 0.403 0.055 0.16 0.122 0.293 0.2 0.398v0.004zm-0.602-0.242c-1.703-0.801-3.023-1.414-3.957-1.84s-1.801-0.773-2.602-1.039c1.2 0.426 2.626 1.039 4.282 1.84 0.801 0.398 1.558 0.746 2.277 1.039zm-10.758-115.56c-0.023-0.257-0.035-0.527-0.039-0.8v0.601c0 0.078 0.012 0.145 0.039 0.199zm24.078 116.28-0.636 0.043c-2.067 0.222-3.746 0.379-5.043 0.457 0.332-0.012 0.679-0.035 1.043-0.059 1.093-0.078 2.636-0.226 4.636-0.441zm-11.359-141.88c-0.961 0.082-2.012 0.094-3.16 0.039l-1.238 0.203c-0.586 0.691-1 1.211-1.243 1.559-0.425 0.586-0.718 1.214-0.879 1.878-0.398 1.547-0.585 2.961-0.558 4.243 0.027-0.828 0.519-1.774 1.48-2.84 0.532-0.59 1.305-1.363 2.321-2.32 0.476 0.613 0.664 1.613 0.558 3-0.027 0.05-0.242 1.332-0.64 3.839-0.535 3.227 0.187 4.985 2.16 5.282 3.894 0.558 6.094 0.879 6.601 0.957 2.348 0.429 4.465 0.961 6.36 1.601 0.613-0.508 0.918-1.707 0.918-3.601 0-1.012 0.015-2.52 0.043-4.52-0.082-1.707-0.403-3.144-0.961-4.316-0.403-0.828-0.906-1.414-1.52-1.762-0.883-0.375-1.668-0.707-2.359-1-1.949-0.852-3.547-1.441-4.801-1.762-0.988-0.238-2.016-0.398-3.082-0.476v-0.004zm-2.961-1.918h-0.039l0.242 0.16-0.203-0.16z" inkscape:connector-curvature="0"/>
      <path id="path20" style="fill-rule:evenodd;fill:#545a30" d="m5.504 20.755c0.398 0.027 2.172 0.043 5.32 0.043 1.332 0 3.211 0.09 5.641 0.277 2.504 0.16 4.344 0.254 5.519 0.281l3.758-1.082-0.398-0.117c-1.895-0.64-4.016-1.172-6.36-1.601-0.507-0.078-2.707-0.399-6.601-0.957-1.973-0.293-2.695-2.055-2.16-5.282 0.398-2.507 0.613-3.785 0.64-3.839 0.106-1.387-0.082-2.387-0.558-3-1.016 0.957-1.789 1.73-2.321 2.32-0.961 1.066-1.453 2.012-1.48 2.84-0.027-1.282 0.16-2.696 0.558-4.243 0.161-0.664 0.454-1.292 0.879-1.878 0.243-0.348 0.657-0.868 1.243-1.559l0.199-0.242 0.32-0.481-1.48-0.16c-1.52-0.051-2.825 0.188-3.918 0.719h-0.043c-0.012 0.012-0.024 0.027-0.039 0.043-0.161 0.133-0.305 0.266-0.442 0.398l-0.398 0.399c-0.028 0.027-0.039 0.058-0.039 0.082l-0.039 0.039c-0.028 0.055-0.055 0.082-0.082 0.082-0.028 0.051-0.051 0.105-0.078 0.16-0.028 0.023-0.043 0.051-0.043 0.078-0.079 0.11-0.145 0.215-0.2 0.32-0.453 0.934-0.613 2.586-0.48 4.961 0.242 2.559 0.359 4.25 0.359 5.079l-0.039 1.683v1.637l0.16 1.32c0.082 0.344 0.176 0.641 0.282 0.879v0.039c0.078 0.188 0.16 0.348 0.238 0.481l1.48 0.242 0.602 0.039zm-4.442 3.801h-0.039c-0.105 0.425-0.171 0.918-0.199 1.48v1.481c0.004 0.273 0.016 0.543 0.039 0.8 0 0.266 0.012 0.547 0.039 0.84 0.188 2.641 0.282 4.145 0.282 4.52l-0.282 25.957c0 1.144-0.199 3.707-0.597 7.683-0.321 3.25-0.387 5.864-0.203 7.84 0.187 1.946 0.707 7.664 1.562 17.16 0.184 1.813 0.359 4.957 0.52 9.438 0.132 4.055 0.347 7.254 0.64 9.601 0.399 3.254 0.52 7.399 0.36 12.438-0.243 5.734-0.375 10.043-0.403 12.922v3.758l2.281 0.523c0.801 0.266 1.668 0.613 2.602 1.039s2.25 1.039 3.957 1.84c0.188 0.105 0.402 0.215 0.641 0.32-0.024-0.027-0.039-0.054-0.039-0.082-0.078-0.105-0.145-0.238-0.2-0.398 0.692-0.293 1.786-0.426 3.282-0.399 2.078 0.051 3.211 0.067 3.398 0.039 1.199-0.082 2.399-0.375 3.602-0.882 0.851-0.344 1.945-0.907 3.277-1.68-1.734 0.109-3.051 0.176-3.961 0.203-1.625 0.023-2.945-0.066-3.957-0.281-0.961-0.215-1.695-0.602-2.199-1.16-0.535-0.774-1.016-1.426-1.442-1.961-0.187-0.239-0.492-0.492-0.921-0.758-0.372-0.242-0.664-0.547-0.879-0.922-0.215-0.398-0.293-0.945-0.239-1.641 0.051-0.773 0.024-1.304-0.082-1.597-0.453-1.336-0.984-1.707-1.597-1.121-0.723 1.066-1.27 1.839-1.641 2.32-0.723-0.453-1.027-2.508-0.922-6.16 0.055-1.922 0.188-4.215 0.403-6.879v-18.32c0.343 4.078 0.519 7.117 0.519 9.117 0 4.617-0.016 7.203-0.043 7.761 0.43-1.093 0.641-2.464 0.641-4.121 0.027-0.933 0-2.332-0.078-4.199v-12.199c0-1.227-0.067-3.121-0.2-5.68-0.054-2.32 0.051-4.215 0.321-5.679 0.664 1.386 1.144 3.386 1.437 6 0.215 2.933 0.375 5.011 0.481 6.238 0.586 4.613 0.988 8.082 1.199 10.402 0.187 2.106 0.668 4.863 1.441 8.278 0.614 1.839 0.985 3.226 1.121 4.16-0.32-6.825-0.496-14.692-0.519-23.598 0-3.016 0.023-10.883 0.078-23.602 0-3.921-0.254-9.64-0.762-17.16-0.531-7.761-0.812-13.48-0.84-17.16-0.105 2.426-0.503 5.735-1.199 9.922-0.828 4.879-1.32 8.16-1.48 9.84-0.266 4.371-0.504 7.719-0.719 10.039-0.375 4.16-0.988 7.465-1.84 9.918-0.375-4.298-0.652-9.349-0.84-15.165-0.027-0.879-0.148-5.946-0.359-15.199-0.027-1.118-0.133-3.399-0.32-6.84-0.133-2.825-0.2-5.106-0.2-6.84 0-0.746-0.093-1.895-0.281-3.438-0.187-1.468-0.281-2.589-0.281-3.363-1.094-0.051-1.957-0.293-2.598-0.719 0.051-1.148 1.278-1.718 3.68-1.718 1.277 0 2.973 0.039 5.078 0.117-0.504-0.293-1.172-0.41-2-0.36-0.984 0.082-1.664 0.067-2.039-0.039-0.453-0.132-1.105-0.453-1.961-0.961-0.906-0.558-1.574-0.918-2-1.078l-2.52-0.64z" inkscape:connector-curvature="0"/>
    </g>
  </g>
<metadata><rdf:RDF><cc:Work><dc:format>image/svg+xml</dc:format><dc:type rdf:resource="http://purl.org/dc/dcmitype/StillImage"/><cc:license rdf:resource="http://creativecommons.org/licenses/publicdomain/"/><dc:publisher><cc:Agent rdf:about="http://openclipart.org/"><dc:title>Openclipart</dc:title></cc:Agent></dc:publisher></cc:Work><cc:License rdf:about="http://creativecommons.org/licenses/publicdomain/"><cc:permits rdf:resource="http://creativecommons.org/ns#Reproduction"/><cc:permits rdf:resource="http://creativecommons.org/ns#Distribution"/><cc:permits rdf:resource="http://creativecommons.org/ns#DerivativeWorks"/></cc:License></rdf:RDF></metadata></svg>
