<?xml version="1.0" encoding="utf-8"?>
<!-- Generator: Adobe Illustrator 26.0.1, SVG Export Plug-In . SVG Version: 6.00 Build 0)  -->
<svg version="1.1" id="Layer_1" xmlns="http://www.w3.org/2000/svg" xmlns:xlink="http://www.w3.org/1999/xlink" x="0px" y="0px"
	 viewBox="0 0 1900 900" style="enable-background:new 0 0 1900 900;" xml:space="preserve">
<style type="text/css">
	.st0{fill:#F5F7F7;}
	.st1{fill:#B7E1E1;}
</style>
<g id="_x32__00000101070935687023238550000014112227152534588037_">
	<path class="st0" d="M1914.5,502.75c-66.4-18.9-122.22-48.83-218.85-59.54c-85.35-9.46-119.19-15.28-199.71,6.3
		c-25.66,6.89-158.05-35.49-175.74-20.99c-71.99,58.91-104.78,45.12-211.69-7.7c-19.64-9.71-78.93,10.95-101.85,5.6
		c-79.33-18.55-156.09-33.46-235.66-15.4c-79.59,18.05-162.56,22.7-238.65-1.4c-60.83-19.26-102.21,8.74-167.75-0.7
		c-24.11-3.47-49.47-3.58-73.89-1.4c-83.29,7.45-217.36,26.97-294.57,49.69l1.19-337.04c38.51-13.88,111.1-59.07,175.52-17.09
		c55.51,36.17,144.75-32.39,220.07-39.34c37.01-3.42,78.5-4.5,107.49,11.66c17.38,9.69,27.73,24.4,45.37,33.86
		c41.51,22.21,101.47,7.2,148.88-8.49c54.51-18.06,109.03-36.12,163.54-54.17c62.48-20.7,140.17-4.17,198.9-29.9
		c75.08-32.89,107.25,48.44,176.35,51.45c27.19,1.18,53.81-5.39,80.1-10.39c67.15-12.76,137.12-18.56,206.8-17.13
		c11.62,0.23,23.7,0.75,33.95,4.52c12.47,4.55,20.44,13.16,29.58,20.56c23.06,18.7,59.06,31.27,94.3,27.42
		c47.59-5.22,88.37-38.36,134.88-29.7c35.58,6.62,61.12,36.72,97.33,31.9L1914.5,502.75z"/>
</g>
<g id="_x32_">
	<path class="st1" d="M1903.37,555.5c-66.4-18.9-122.22-48.83-218.85-59.54c-85.35-9.46-119.19-15.28-199.71,6.3
		c-25.66,6.89-158.05-35.49-175.74-20.99c-71.99,58.91-104.78,45.12-211.69-7.7c-19.64-9.71-78.93,10.95-101.85,5.6
		c-79.33-18.55-156.09-33.46-235.66-15.4c-79.59,18.05-162.56,22.7-238.65-1.4c-60.83-19.26-102.21,8.74-167.75-0.7
		c-24.11-3.47-49.47-3.58-73.89-1.4c-83.29,7.45-217.36,26.97-294.57,49.69l1.19-337.04c38.51-13.88,111.1-59.07,175.52-17.09
		c55.51,36.17,144.75-32.39,220.07-39.34c37.01-3.42,78.5-4.5,107.49,11.66c17.38,9.69,27.73,24.4,45.37,33.86
		c41.51,22.21,101.47,7.2,148.88-8.49c54.51-18.06,109.03-36.12,163.54-54.17c62.48-20.7,140.17-4.17,198.9-29.9
		c75.08-32.89,107.25,48.44,176.35,51.45c27.19,1.18,53.81-5.39,80.1-10.39c67.15-12.76,137.12-18.56,206.8-17.13
		c11.62,0.23,23.7,0.75,33.95,4.52c12.47,4.55,20.44,13.16,29.58,20.56c23.06,18.7,59.06,31.27,94.3,27.42
		c47.59-5.22,88.37-38.36,134.88-29.7c35.58,6.62,61.12,36.72,97.33,31.9L1903.37,555.5z"/>
</g>
</svg>
