<?xml version="1.0" encoding="UTF-8" standalone="no"?>
<!-- Created with Inkscape (http://www.inkscape.org/) -->

<svg
   width="210mm"
   height="297mm"
   viewBox="0 0 210 297"
   version="1.1"
   id="svg2780"
   inkscape:version="1.1.1 (3bf5ae0d25, 2021-09-20)"
   sodipodi:docname="goldfish.svg"
   xmlns:inkscape="http://www.inkscape.org/namespaces/inkscape"
   xmlns:sodipodi="http://sodipodi.sourceforge.net/DTD/sodipodi-0.dtd"
   xmlns="http://www.w3.org/2000/svg"
   xmlns:svg="http://www.w3.org/2000/svg">
  <sodipodi:namedview
     id="namedview2782"
     pagecolor="#ffffff"
     bordercolor="#666666"
     borderopacity="1.0"
     inkscape:pageshadow="2"
     inkscape:pageopacity="0.0"
     inkscape:pagecheckerboard="0"
     inkscape:document-units="mm"
     showgrid="false"
     inkscape:zoom="0.70710678"
     inkscape:cx="396.6869"
     inkscape:cy="557.90725"
     inkscape:window-width="1920"
     inkscape:window-height="1017"
     inkscape:window-x="-8"
     inkscape:window-y="-8"
     inkscape:window-maximized="1"
     inkscape:current-layer="layer1" />
  <defs
     id="defs2777" />
  <g
     inkscape:label="Layer 1"
     inkscape:groupmode="layer"
     id="layer1">
    <path
       id="path2864"
       style="opacity:0.94;fill:#ff7f2a;stroke-width:0.999999"
       transform="scale(0.26458333)"
       d="m 239.07031,158.27148 a 84.998484,51.943513 0 0 0 -74.4707,51.5254 84.998484,51.943513 0 0 0 75.2207,51.55468 c 0.17363,-0.11331 0.36541,-0.20671 0.65039,-0.25195 0.22702,-0.036 0.45427,0.0679 0.68164,0.10156 0.0148,0.003 0.0593,0.0131 0.0449,0.008 -0.035,-0.0132 -0.14484,-0.0275 -0.10743,-0.0312 0.19305,-0.02 0.39089,-0.0177 0.58399,-0.0195 0.53833,-0.008 0.76255,0.027 1.21679,0.31641 a 84.998484,51.943513 0 0 0 6.70899,0.26758 84.998484,51.943513 0 0 0 16.01172,-0.93946 c 0.51463,-0.47559 0.78736,-0.42046 2.32226,-0.41015 0.28972,-4.9e-4 0.57942,0.003 0.86914,0.002 a 84.998484,51.943513 0 0 0 65.79493,-50.59765 84.998484,51.943513 0 0 0 -71.35938,-51.26758 h -0.6582 -2.0586 -7.07812 -1.96094 -3.91406 -5.47461 -0.34766 c -0.4393,-0.002 -0.80827,0.007 -1.13086,0.0117 -0.20406,0.0385 -0.47495,0.15379 -0.51757,0.002 -0.55444,-0.005 -0.87469,-0.0571 -1.02735,-0.27149 z m 3.50781,103.1875 c 2.9e-4,6e-5 0.009,0.004 0.01,0.004 a 84.998484,51.943513 0 0 0 0.002,0 c 8e-5,0 -0.012,-0.004 -0.0117,-0.004 z" />
    <path
       id="path3790"
       style="opacity:0.86;fill:#ff7f2a;stroke-width:0.418711"
       inkscape:transform-center-x="2.2943539"
       inkscape:transform-center-y="0.47965266"
       d="m 95.694422,38.771269 -18.888252,4.070553 -0.114205,-0.09767 c -0.03265,0.03943 -0.06777,0.07425 -0.106455,0.09302 -0.01722,0.0084 -0.0348,0.01598 -0.05271,0.02273 -0.01492,0.01103 -0.03051,0.02098 -0.04134,0.02687 -0.176173,0.09573 -0.193617,0.107339 -0.310573,0.09767 -0.0092,0.0026 -0.01746,0.005 -0.02326,0.0057 -0.25005,0.03054 -0.151445,0.03269 -0.402561,-0.103871 -0.0075,-0.0094 -0.01569,-0.01836 -0.02376,-0.02739 -0.0043,0.0011 -0.0086,0.0021 -0.01291,0.0031 -0.02741,0.0039 -0.05476,0.0079 -0.08217,0.01188 -0.15122,-0.01894 -0.108675,-0.0024 -0.235127,-0.06563 0.0085,0.0038 0.02024,0.0086 0.02635,0.0093 0.014,0.0019 0.05572,2.64e-4 0.04186,-0.0026 -0.197993,-0.03844 -0.169296,0.01283 -0.208256,-0.06615 -0.0173,-0.0024 -0.03503,-0.0053 -0.05529,-0.01035 -0.04012,-0.0099 -0.0776,-0.02931 -0.116271,-0.04392 -0.0083,-0.0051 -0.02714,-0.0085 -0.03307,-0.01394 h -5.3e-4 c -0.01069,0.0024 -0.02138,0.0048 -0.03204,0.0072 -0.04744,-0.0071 -0.09604,-0.0097 -0.142626,-0.02119 -0.02567,-0.0063 -0.04946,-0.01926 -0.07286,-0.03152 -0.0082,-0.0043 0.02053,-0.03449 -0.01291,-0.02429 -0.06423,-0.01204 -0.132098,0.0089 -0.196371,-0.0036 -0.0069,0.0019 -0.01355,0.0036 -0.0181,0.0041 -0.251206,0.03113 -0.150789,0.03354 -0.403593,-0.10387 -0.0021,-0.0026 -0.01056,-0.01365 -0.0186,-0.02379 -0.04625,5.29e-4 -0.09279,0.0013 -0.13901,-0.0011 -0.01275,-0.0011 -0.02574,-5.29e-4 -0.03824,-0.0031 -0.0043,-7.93e-4 0.0041,-0.0035 0.01241,-0.0057 -0.126531,0.02691 0.14927,-0.0168 -0.137459,0.02532 -0.190653,-0.03375 -0.150355,-0.01085 -0.222726,-0.07906 -0.0049,2.1e-5 -0.0097,-5.29e-4 -0.01394,-0.0031 -0.0024,-0.0013 5.3e-4,-0.0031 0.0047,-0.0052 -0.0011,-0.0011 -0.0026,-0.0021 -0.0036,-0.0031 -0.01275,0.004 -0.02514,0.0094 -0.03824,0.01188 -0.09989,0.01884 -0.192709,0.01061 -0.288869,-0.02376 -0.01241,-0.0053 -0.03351,-0.003 -0.03721,-0.01603 -0.0029,-0.01011 0.0406,-0.0039 0.03049,-0.0067 -0.216824,-0.06052 -0.119711,0.0011 -0.219625,-0.07183 -0.07845,0.0059 -0.155276,-0.0079 -0.234096,-0.05013 -0.02416,-0.03317 0.01386,0.02463 0.06201,-0.02376 0.015,-0.01508 -0.04186,0.0073 -0.06304,0.0093 -0.11644,0.01098 -0.213981,0.0062 -0.320394,-0.04754 -0.0061,-0.0045 -0.008,-0.0064 -0.01188,-0.0093 -0.02463,0.0048 -0.04922,0.0082 -0.07286,0.0021 -0.06442,-0.0173 -0.137549,-0.03248 -0.191203,-0.07079 -0.05295,-0.0042 -0.105156,-0.01532 -0.158131,-0.03876 -0.01167,-0.0062 -0.01746,-0.0098 -0.02066,-0.01291 -0.02043,-0.0046 -0.03758,-0.0084 -0.06718,-0.0155 -0.04064,-0.0097 -0.0792,-0.0269 -0.117821,-0.04289 -0.01225,-0.0051 -0.04411,-0.01146 -0.03411,-0.02016 0.0019,-0.0016 0.0042,-0.0016 0.0062,-0.0026 -0.05229,7.94e-4 -0.104315,0.0011 -0.156581,-0.0016 -0.01304,-0.0011 -0.0265,-5.3e-4 -0.03927,-0.0031 -0.02861,0.0077 -0.05383,0.01 -0.113173,0.01963 -0.130765,-0.01506 -0.103928,-0.0028 -0.230992,-0.05529 -0.03489,-0.01445 -0.03863,-0.01979 -0.02894,-0.0217 -0.01516,5.29e-4 -0.02482,5.29e-4 -0.0072,-5.3e-4 -0.03912,-2.64e-4 -0.14383,0.0044 -0.108521,-0.01291 -0.08175,0.02479 -0.16124,0.03415 -0.249598,0.0098 -0.03651,-0.01005 -0.0716,-0.02498 -0.106452,-0.03979 -0.0046,-0.0019 -0.0132,-0.0056 -0.01913,-0.0088 -0.09054,0.0078 -0.156731,-0.0176 -0.240294,-0.07597 -0.05285,-8e-6 -0.105796,-1.8e-5 -0.158647,0 -0.06329,7.4e-5 -0.126362,-1.24e-4 -0.189653,-5.29e-4 -0.07068,-1.3e-5 -0.141751,0.0032 -0.212389,-5.29e-4 -0.01381,-0.0011 -0.02788,-1.1e-5 -0.04134,-0.0031 -0.01257,0.0041 -0.02471,0.0059 -0.113689,0.01963 -0.03912,-0.0048 -0.0797,-0.0045 -0.117822,-0.01447 -0.04272,-0.01119 -0.08261,-0.03066 -0.122991,-0.04857 -0.01627,-0.0072 -0.02233,-0.01201 -0.02326,-0.01497 0.0029,0 -0.01431,-1.1e-5 -0.0078,0 -0.02368,-7.94e-4 -0.114289,-0.0042 -0.128158,-0.0062 -0.01627,-0.0024 -0.06081,0.01392 -0.04909,0.0026 0.01974,-0.01942 0.04716,-0.02894 0.07079,-0.04341 -0.07786,0.02167 -0.153156,0.05711 -0.233576,0.06511 -0.03582,0.0036 -0.163561,-0.04183 -0.263033,-0.08165 h -0.04703 -0.171566 -0.2682 -0.189138 c -0.06319,0 -0.126463,-5e-6 -0.18965,0 -0.06378,3e-6 -0.127424,8e-6 -0.191204,0 -0.05769,2.1e-5 -0.115427,2.65e-4 -0.173117,0 -0.08291,-2.01e-4 -0.16619,-2.62e-4 -0.249079,0.0011 -0.07076,-0.0016 -0.222162,-0.0031 -0.222726,-0.0057 -7.94e-4,-0.0031 0.0021,-0.0059 0.0062,-0.0083 -0.01156,0.0046 -0.02349,0.0078 -0.03514,0.01188 -0.09914,0.01566 -0.125246,0.02939 -0.227891,0.0021 -0.04366,-0.01169 -0.08446,-0.03242 -0.125574,-0.05116 -0.01307,-0.006 -0.01908,-0.01048 -0.02119,-0.01344 -0.06731,-7.94e-4 -0.134329,-0.0016 -0.201538,0.0016 -0.06581,0.0024 -0.150029,0.0028 -0.177766,-0.01757 -0.01662,0.0069 -0.03346,0.01312 -0.05064,0.0186 -0.0084,0.0071 -0.01683,0.01426 -0.02169,0.01963 -0.231019,0.100682 -0.204518,0.110403 -0.392743,0.104902 -0.05607,-5.29e-4 -0.112553,-0.004 -0.168465,0.0011 -0.02656,0.0013 -0.06644,0.0013 -0.104902,0 -0.06463,0.05866 -0.117814,0.06402 -0.232026,0.06253 -0.03711,-0.0016 -0.104154,0.0064 -0.137459,-0.0057 -0.0043,-0.0016 0.01328,-0.01087 0.0088,-0.01035 -0.01913,0.0024 -0.03731,0.01061 -0.05581,0.01603 -0.175374,0.02511 -0.22011,0.0085 -0.333312,-0.06408 -0.04868,3.2e-5 -0.09706,1.93e-4 -0.14573,0 -0.08465,-10e-5 -0.169598,7.94e-4 -0.254246,0.0011 -0.08515,-0.0027 -0.166158,-0.01175 -0.254249,0.0057 -0.04938,0.0035 -0.216167,0.01945 -0.262517,0.0052 -0.06178,-0.01905 -0.120419,-0.04674 -0.1788,-0.07493 -0.0503,1.4e-5 -0.100592,6.6e-5 -0.150894,0 -0.06535,-5.3e-5 -0.130503,-1.13e-4 -0.195855,0 -0.06927,-5.29e-4 -0.139015,-0.0029 -0.208257,0.0016 -0.04081,0.0011 -0.07073,5.29e-4 -0.09922,-0.0016 h -0.0863 c -0.0028,0.0011 -0.0049,0.0026 -0.0078,0.0036 -0.126994,0.04612 -0.165396,0.05758 -0.26975,0.06098 -0.04789,0.0021 -0.09021,2.38e-4 -0.133842,-0.0047 -0.103728,0.05691 -0.153898,0.06951 -0.267682,0.06666 -0.06835,-5.29e-4 -0.136856,-0.0033 -0.205158,0.0016 -0.05694,0.0016 -0.105045,-1.22e-4 -0.155546,-0.0057 -0.124521,0.07114 -0.171423,0.07783 -0.275434,0.05891 -0.06119,0.03458 -0.123079,0.06866 -0.194304,0.07648 -0.04925,0.0047 -0.125117,0.01572 -0.187585,0.0067 l -0.630452,6.724137 -16.866155,8.920903 17.843357,7.072437 1.002522,4.587833 c 0.02743,0.0042 0.06356,0.0095 0.07286,0.01085 0.0072,-5.29e-4 0.01461,-0.0013 0.02273,-0.0021 0.02307,-0.01826 0.0034,-0.0021 0.06408,-0.05116 0.104055,-0.06597 0.157065,-0.133771 0.300757,-0.15658 0.06007,-0.0095 0.120193,0.01797 0.180351,0.02687 0.0039,7.93e-4 0.01569,0.0035 0.01188,0.0021 -0.0093,-0.0035 -0.03832,-0.0073 -0.02842,-0.0083 0.05108,-0.0053 0.103423,-0.0047 0.154514,-0.0052 0.166815,-0.0026 0.21399,0.0043 0.386022,0.125058 0.0051,0.0019 0.0094,0.0038 0.01447,0.0057 0.06797,-0.0098 0.137335,-0.0033 0.20619,-0.0026 0.0881,-0.0088 0.162808,0.03243 0.236678,0.07131 0.140996,-0.02668 0.18044,-0.01098 0.330729,0.06253 0.04636,-0.0068 0.04166,-0.0056 0.113688,-0.01138 0.08674,-0.0016 0.173181,0.0051 0.259932,0.0036 0.06074,-0.0011 0.121658,-7.93e-4 0.182417,-5.29e-4 0.121817,-0.08707 0.175739,-0.08134 0.368454,-0.07028 0.109675,0.0159 0.218855,0.0092 0.328663,0.0062 0.104468,-0.0089 0.199604,0.0191 0.287837,0.06408 0.0019,-0.0013 0.0061,0 0.0088,0 0.01781,-3e-6 0.03544,0 0.05323,0 0.102751,-1.1e-5 0.20524,-6e-6 0.30799,0 0.14473,2.1e-5 0.289873,2.64e-4 0.4346,0 0.127119,-1.01e-4 0.253743,-5.29e-4 0.380857,0.0011 0.08569,0.0045 0.173847,-0.01683 0.258897,0.0093 0,0 5.29e-4,0 5.29e-4,0 0.07374,-0.04194 0.150101,-0.08283 0.239263,-0.07338 0.09988,-6.1e-5 0.199843,-0.0013 0.299723,0 0.07863,7.94e-4 0.156638,0.0011 0.23513,-0.0057 0.01826,0.0024 0.02244,0.0028 0.03462,0.0041 0.114523,-0.07864 0.24065,-0.136919 0.386541,-0.124542 0.07033,-5.29e-4 0.141187,-0.0038 0.211357,0.0026 0.01294,0.0013 0.01519,0.0021 0.01963,0.0031 0.09944,-0.02043 0.185267,-0.0364 0.29197,5.29e-4 0.03198,0.03458 0.06682,0.06701 0.101288,0.09974 0.01995,-0.01117 0.03668,-0.02032 0.05064,-0.02842 0.06299,-0.108723 0.162793,-0.190172 0.304893,-0.205156 0.03982,-0.0021 0.114051,-0.0036 0.176215,0 0.06461,-0.06864 0.123955,-0.06276 0.266134,-0.06201 0.07551,-8e-6 0.15135,-4.8e-5 0.226859,0 0.06691,-8.7e-5 0.133596,-5.29e-4 0.200507,5.29e-4 0.110937,5.29e-4 0.221964,-0.0021 0.332795,-0.0026 0.01466,0.0028 0.0293,0.0054 0.04392,0.0083 0.01222,-0.0047 0.01622,-0.0064 0.03566,-0.01394 0.02617,-0.0065 0.05237,-0.0127 0.07855,-0.01913 0.01677,-0.01542 0.03372,-0.02926 0.04702,-0.03255 0.04584,-0.02751 0.0877,-0.06314 0.137459,-0.08268 0.209876,-0.08242 0.457991,-0.05237 0.682646,-0.04083 0.01402,-0.0096 0.02601,-0.01407 0.03979,-0.01654 0.01508,-0.02848 0.03197,-0.05541 0.05633,-0.07597 0.06405,-0.05405 0.153054,-0.06888 0.229444,-0.103351 0.08148,-0.0026 0.20093,-0.01969 0.278019,-0.0031 0.0164,0.0035 0.03246,0.0087 0.04857,0.01344 -0.0028,-0.004 0.03068,-0.01236 0.163298,-0.03204 0.07835,-0.01161 0.138361,-0.01847 0.186037,-0.02273 5.29e-4,-8.7e-5 0.0011,-5.29e-4 0.0016,-5.29e-4 0.02811,-0.01032 0.05529,-0.02342 0.08423,-0.031 0.04883,-0.01278 0.09853,-0.02204 0.148312,-0.03049 0.15612,-0.104148 0.235654,-0.08369 0.440801,-0.08268 h 0.2682 c 0.06272,0 0.1259,-8e-6 0.188619,0 0.05814,1.9e-5 0.116009,1.09e-4 0.174149,0 0.108503,3e-6 0.217059,5.29e-4 0.325562,0 0.0653,-0.0013 0.130744,-0.0019 0.195855,0.0041 -0.01011,0.004 -0.04114,0.01407 -0.03049,0.01188 0.06766,-0.01384 0.121804,-0.0249 0.171051,-0.02635 0.07065,-0.0021 0.132157,0.01707 0.210838,0.07596 0,0 5.3e-4,0 5.3e-4,0 0.03065,-0.0024 0.06173,-0.0059 0.09095,-0.0026 0.241411,1.21e-4 0.482582,7.93e-4 0.723987,-5.3e-4 0.18967,-7.93e-4 0.127776,0.0044 0.231511,0.0047 0.130114,-0.0045 0.378306,-0.05572 0.485759,0.01704 0.01754,0.01188 0.03338,0.02569 0.04806,0.04082 0.06441,-1.58e-4 0.128529,2.65e-4 0.192754,0.0036 0.0072,5.29e-4 0.0149,-5.29e-4 0.0217,0.0016 0.0024,7.93e-4 0.0016,0.0021 0,0.0031 0.09073,-0.0222 0.167637,-0.03714 0.269235,-5.29e-4 0.02859,0.019 0.04025,0.02635 0.06098,0.03979 0.03068,-0.006 0.0629,-0.0089 0.104904,-0.0047 0.05092,0.0051 0.265129,0.05301 0.300239,0.125056 7.93e-4,0.0016 0.0013,0.0035 0.0021,0.0052 0.04661,5.29e-4 0.09189,0.0079 0.134358,0.01654 0.03007,-2.64e-4 0.05653,-6.8e-5 0.077,0.0016 0.02819,-0.0021 0.06893,-0.0016 0.08268,-0.0016 2.14e-4,0.02199 0.0011,0.03687 0.0016,0.05736 0.01037,0.03675 0.0094,0.09832 0.0062,0.196371 0.0057,0.0011 0.0069,0.0181 0.0062,0.04134 l 0.22841,-0.245462 19.260838,2.038117 -9.982851,-15.51378 z m -22.553146,29.72945 c 0.02665,-0.0024 0.0489,-0.0038 0.06666,-0.0047 -0.0086,-5.29e-4 -0.01601,-5.29e-4 -0.02635,-0.0016 -0.01344,0.0021 -0.02688,0.004 -0.04031,0.0062 z m -0.0016,5.3e-4 c -0.0057,7.93e-4 -0.0114,0.0013 -0.01707,0.0026 -0.0028,5.3e-4 0.0061,0.0019 0.0088,0.0011 0.0029,-0.0011 0.0054,-0.0026 0.0083,-0.0036 z m -11.197211,-28.1647 c -0.02598,0.0013 -0.0368,0.0019 -0.06098,0.0031 0.0205,1.7e-4 0.04099,-1e-4 0.0615,0 -6.1e-5,-0.0011 -5.29e-4,-0.0021 -5.29e-4,-0.0031 z m 4.453474,1.272791 c -0.03803,0.01151 -0.07632,0.02193 -0.112654,0.03772 -0.03026,0.01315 0.06733,-0.0077 0.09612,-0.02376 0.0062,-0.0035 0.0114,-0.0086 0.01654,-0.01394 z m -2.613276,0.01085 c 5.29e-4,1.88e-4 0.0011,7.94e-4 0.0016,0.0011 0.01066,0.0032 0.01799,0.0045 0.02791,0.0072 -0.0065,-0.003 -0.01315,-0.0055 -0.01963,-0.0083 -0.0033,2.9e-5 -0.0065,-2.4e-5 -0.0098,0 z m 6.767547,0.1695 c 0.05911,0.03807 0.121073,0.06869 0.08733,0 -0.02909,0 -0.05824,3e-6 -0.08733,0 z m -8.647018,0.01447 c -0.01402,0.0071 -0.02801,0.015 -0.04186,0.02273 0.0053,-0.0013 0.0092,-0.0019 0.0155,-0.0036 0.01042,-0.0029 0.03607,-0.02402 0.02635,-0.01913 z m -0.165364,0.02222 c -0.0065,-0.0013 0.01273,0.0038 0.01913,0.0057 0.0065,5.3e-4 0.01122,0.0011 0.01654,0.0016 -0.01175,-0.0024 -0.02241,-0.0045 -0.03566,-0.0072 z m 11.487152,0.440798 c -0.02418,0.0085 -0.04771,0.01548 -0.07131,0.02119 0.0033,7.94e-4 0.0066,0.0013 0.0098,0.0021 0.02111,-0.0062 0.08225,-0.03054 0.0615,-0.02326 z m 2.272731,0.02739 c 0.02975,0.01667 0.06048,0.03214 0.08888,0.05064 -0.0078,-0.01685 -0.01543,-0.0338 -0.02326,-0.05064 -0.02188,-7.1e-5 -0.04377,-4.2e-5 -0.06563,0 z m -1.980758,0.02635 c -0.01225,-0.0096 0.01741,0.02802 0.03152,0.03462 0.0071,0.0033 0.01445,0.0058 0.0217,0.0088 -0.0159,-0.01336 -0.03148,-0.0263 -0.05323,-0.04341 z m 1.538923,0.09922 c 0.0037,0.130125 0.0013,0.105281 0.07803,0.112655 -0.0223,-0.03368 -0.04742,-0.06974 -0.07803,-0.112655 z m 0.08113,0.241329 c -0.01011,0.0029 -0.02027,0.0053 -0.03049,0.0078 0.0021,2.1e-5 0.0043,2.11e-4 0.0062,0 0.0086,-0.0011 0.01635,-0.0043 0.02429,-0.0078 z m 1.355989,0.212389 c -0.03564,0.01196 -0.07166,0.02291 -0.106968,0.03566 0.03158,-0.0086 0.06624,-0.0095 0.09457,-0.02585 0.0043,-0.0024 0.0086,-0.0059 0.01241,-0.0098 z m -1.246952,25.541078 c -0.01624,5.3e-4 -0.02708,0.0021 -0.01654,0.0047 0.02511,0.0058 0.05162,0.005 0.07855,0.0031 -0.0045,-0.0021 -0.0092,-0.0039 -0.01394,-0.0052 -0.01048,-0.0027 -0.03181,-0.0032 -0.04806,-0.0026 z m -2.395717,0.13539 c -0.01193,-7.93e-4 -0.01786,0.0021 -0.01601,0.0098 0.01598,5.3e-4 0.02103,0.0021 -0.0093,0.0062 0.06706,0.02214 0.133443,0.04876 0.203089,0.05891 0.05458,0.008 -0.121079,-0.07167 -0.177766,-0.07493 z m -0.02532,0.01601 c -0.0011,-2.65e-4 -0.0021,-7.94e-4 -0.0031,-0.0011 -0.0086,0.0019 -0.02148,0.0043 -0.01601,0.0036 0.01016,-0.0013 0.01265,-0.0016 0.01913,-0.0026 z m -0.0031,-0.0011 c 0.0067,-0.0013 0.0083,-0.0021 0.01241,-0.0031 -2.64e-4,-7.94e-4 1.8e-4,-0.0013 0,-0.0021 -0.01376,-5.29e-4 -0.02847,-7.94e-4 -0.03772,-0.0026 0.0084,0.0026 0.01693,0.005 0.02532,0.0078 z m 4.153752,0.0098 c 0.01881,0.02445 0.03803,0.04859 0.05995,0.06977 0.01656,0.01601 -0.02352,-0.03954 -0.03514,-0.05943 -0.0082,-0.0035 -0.01654,-0.0069 -0.02479,-0.01035 z m -4.662246,0.118857 c -0.0095,0.0011 -0.01831,0.0032 -0.02687,0.0078 -0.0082,0.0044 -0.01617,0.0094 -0.02379,0.01447 0.03339,-0.0032 0.07564,-0.0079 0.140044,-0.01757 -0.02915,7.94e-4 -0.06089,-0.0079 -0.0894,-0.0047 z m -0.205672,0.06873 c -0.0011,5.3e-4 -0.0021,0.0011 -0.0031,0.0016 -0.02223,0.01125 -0.08103,0.05795 -0.06046,0.04392 0.03281,-0.02236 0.04733,-0.03355 0.06356,-0.04547 z m 1.704288,0.0801 c -0.03413,0.02593 -0.06732,0.05386 -0.100251,0.08165 0.0028,1.01e-4 0.0055,5.29e-4 0.0083,5.29e-4 0.04512,-0.0104 0.04126,-0.0049 0.09198,-0.08217 z m -2.44171,0.02894 c -0.0089,5.29e-4 -0.0433,0.0067 -0.0553,0.01344 -0.0011,5.29e-4 -0.0021,0.0013 -0.0031,0.0021 0.01894,-0.0047 0.03796,-0.009 0.05685,-0.01394 0.0044,-0.0011 0.0045,-0.0019 0.0016,-0.0016 z m -0.174152,0.06666 c 0.0098,0.0019 0.01961,0.004 0.02946,0.0057 0.0021,-3e-6 -0.015,-0.0048 -0.02273,-0.0057 -0.0021,-2.28e-4 -0.0045,8.7e-5 -0.0067,0 z m 5.015198,0.10542 c 0.0029,7.94e-4 0.01892,0.0036 0.02842,0.0057 0.01871,0.0042 -0.0046,0.0041 -0.03514,0.0031 -0.01386,0.01942 -0.02439,0.03929 -0.02791,0.05891 0.063,-0.0056 0.12641,-0.0078 0.190169,-0.0083 0.0032,-0.01617 0.0069,-0.03197 0.01035,-0.04806 -0.05605,0.004 -0.110541,-0.0053 -0.165881,-0.01138 z m -6.190837,0.03359 c -0.0045,0.0011 -0.0077,0.0019 -0.01241,0.0031 -0.0013,0.0074 -0.0016,0.01521 -0.0026,0.02273 0.0049,-0.0083 0.01035,-0.01834 0.01498,-0.02585 z m 7.169589,0.03359 c -0.01373,0.0016 -0.02767,0.0027 -0.04134,0.0036 0.01913,0.01865 0.04193,0.03991 0.0677,0.06356 0.0019,5.3e-4 0.0038,0.0016 0.0057,0.0021 0.0036,-0.0155 0.0057,-0.03127 0.0078,-0.04702 -0.01267,-0.007 -0.02516,-0.01336 -0.03979,-0.02222 z m -13.375412,0.0181 c 0.0032,5.3e-4 0.05629,0.0155 0.114723,0.03514 -0.0016,-0.0019 -0.003,-0.0039 -0.0047,-0.0057 -0.08345,-0.0218 -0.112657,-0.02993 -0.110072,-0.02946 z m 6.090068,0.01035 c -0.02627,7.9e-5 -0.129842,0.01119 -0.171564,0.01344 -0.0019,0.003 -0.0034,0.0062 -0.0052,0.0093 0.05769,-0.0046 0.115887,-0.0056 0.172082,-0.0186 0.01357,-0.0031 0.01341,-0.0042 0.0047,-0.0041 z m 0.621152,0.03049 c -0.0016,8e-5 -0.0029,0.0013 -0.0041,0.0047 -0.01119,0.02982 -0.02077,0.06033 -0.02945,0.09095 0.01497,-0.0043 0.02998,-0.0086 0.04496,-0.01291 0.01066,-0.02373 -0.0019,-0.0832 -0.01138,-0.08268 z m 6.918441,0.0078 c 0.0047,0.01183 0.0089,0.02379 0.01344,0.03566 0.0093,0.004 0.02053,0.0081 0.03101,0.01241 0.02532,-0.0051 0.04834,-0.0096 0.077,-0.01498 -0.0067,-0.0088 -0.01331,-0.01736 -0.02119,-0.02791 -0.02815,-0.0013 -0.06811,-0.0036 -0.100251,-0.0052 z m -13.068969,0.0801 c -0.0066,5.29e-4 -0.01005,1.14e-4 -0.0186,5.29e-4 -0.01082,0.0032 -0.04363,0.01212 -0.03256,0.0098 0.01958,-0.0041 0.03458,-0.007 0.05116,-0.01035 z m 0.06873,0.0036 c 0.01164,0.006 0.02344,0.01222 0.03514,0.01757 0.0045,0.0021 -0.0056,-0.0094 -0.01035,-0.01085 -0.01,-0.0032 -0.01741,-0.0049 -0.02479,-0.0067 z m 1.798341,0.131776 c -0.03334,0.003 -0.05121,0.0091 -0.02635,0.01757 0.005,0.0016 0.0099,0.0027 0.01497,0.0041 0.0038,-0.0072 0.0075,-0.01447 0.01138,-0.02169 z m -0.391192,0.05374 c -0.0044,-2.64e-4 -0.0096,-6.6e-5 -0.01447,5.3e-4 0.0013,0.0019 0.0024,0.0039 0.0036,0.0057 0.0079,-1.72e-4 0.01585,-7.94e-4 0.02376,-0.0011 -0.0021,-0.0034 -0.0068,-0.0047 -0.01291,-0.0052 z m 2.265495,1.020609 c -0.01209,0.0026 -0.0241,0.0051 -0.03617,0.0078 5.29e-4,0.0027 0.0011,0.0066 0.0016,0.0093 0.01212,-0.0031 0.02273,-0.0061 0.03514,-0.0093 -4.7e-5,-0.0027 -5.29e-4,-0.0051 -5.29e-4,-0.0078 z m 2.474786,0.0098 c 1.93e-4,7.94e-4 2.64e-4,0.0013 5.29e-4,0.0021 0,0 5.29e-4,0 5.29e-4,0 -2.65e-4,-7.94e-4 -7.94e-4,-0.0013 -0.0011,-0.0021 z m -5.467369,4.264856 c -2.04e-4,0.0028 -2.11e-4,0.0055 -5.29e-4,0.0083 0.0084,0.0036 0.01691,0.0069 0.02532,0.01034 0.0011,-0.0019 0.0016,-0.0035 0.0026,-0.0052 -0.009,-0.005 -0.01728,-0.0081 -0.02739,-0.01344 z m 0.752409,7.414535 c -0.06387,0.04508 -0.127796,0.08988 -0.19172,0.134874 -0.01302,0.01 -0.01818,0.01416 -0.02997,0.02326 l 0.01447,0.0646 z" />
  </g>
</svg>
