<?xml version="1.0" encoding="utf-8"?>
<!-- Generator: Adobe Illustrator 26.0.1, SVG Export Plug-In . SVG Version: 6.00 Build 0)  -->
<svg version="1.1" id="Layer_1" xmlns="http://www.w3.org/2000/svg" xmlns:xlink="http://www.w3.org/1999/xlink" x="0px" y="0px"
	 viewBox="0 0 1900 900" style="enable-background:new 0 0 1900 900;" xml:space="preserve">
<style type="text/css">
	.st0{fill:#5DB9C1;}
</style>
<g id="_x33_">
	<path class="st0" d="M-3.39,687.5L-3.5,123.99C73.97,54.21,159.36-41.25,239.16,29.26c22.84,20.18,48.25,6.46,73.78-0.67
		c72.58-20.25,41.29,31.65,281.75,44c97.79,5.02,14.01,19.82,214.32-5.8c56.97-7.29,170.23-95.19,197.37,4.83
		c2.28,8.41,47.19,33.35,62.8,24.17c70.25-41.34,197.88,45.67,258.18,31.91c57.27-13.07,34.58,14.45,80.6,12.78
		c105.74-3.83,169.2-5.89,254.83,23.16c96.95,32.89,180.11-54.69,246.73,3.35l0.98,520.51"/>
</g>
</svg>
