<?xml version="1.0" standalone="no"?>
<!DOCTYPE svg PUBLIC "-//W3C//DTD SVG 20010904//EN"
 "http://www.w3.org/TR/2001/REC-SVG-20010904/DTD/svg10.dtd">
<svg version="1.0" xmlns="http://www.w3.org/2000/svg"
 width="399.000000pt" height="705.000000pt" viewBox="0 0 399.000000 705.000000"
 preserveAspectRatio="xMidYMid meet">

<g transform="translate(0.000000,705.000000) scale(0.100000,-0.100000)"
fill="#000000" stroke="none">
<path d="M2205 1163 c-367 -47 -679 -191 -755 -349 -28 -58 -38 -196 -20 -286
32 -164 144 -316 296 -400 54 -30 200 -67 357 -90 128 -19 193 -23 412 -23
231 1 270 3 352 22 89 21 167 54 209 90 89 74 67 268 -59 506 -109 207 -296
416 -430 482 -40 19 -96 40 -126 45 -52 10 -173 11 -236 3z"/>
</g>
</svg>
