<?xml version="1.0" encoding="utf-8"?>
<!-- Generator: Adobe Illustrator 26.0.1, SVG Export Plug-In . SVG Version: 6.00 Build 0)  -->
<svg version="1.1" id="Layer_1" xmlns="http://www.w3.org/2000/svg" xmlns:xlink="http://www.w3.org/1999/xlink" x="0px" y="0px"
	 viewBox="0 0 2437 2436" style="enable-background:new 0 0 2437 2436;" xml:space="preserve">
<style type="text/css">
	.st0{fill:url(#SVGID_1_);}
	.st1{fill:#EAB07D;}
</style>
<radialGradient id="SVGID_1_" cx="1218.5" cy="1218" r="152.5051" gradientUnits="userSpaceOnUse">
	<stop  offset="0" style="stop-color:#F7931E"/>
	<stop  offset="1" style="stop-color:#F78E1E"/>
</radialGradient>
<path class="st0" d="M1300.7,1364.3L1225,1297c-4-3.5-9.9-3.5-13.9-0.1l-76.2,66.6c-8.5,7.4-21.1-1.8-16.6-12.1l40.6-92.7
	c2.1-4.9,0.3-10.5-4.2-13.3l-86.9-51.9c-9.7-5.8-4.8-20.6,6.4-19.5l100.7,9.9c5.3,0.5,10.1-3,11.3-8.1l22.5-98.7
	c2.5-11,18.1-10.9,20.5,0.1l21.7,98.9c1.1,5.2,5.9,8.7,11.2,8.2l100.8-9.1c11.2-1,16,13.9,6.3,19.6l-87.3,51.2
	c-4.6,2.7-6.4,8.3-4.4,13.2l39.8,93.1C1321.8,1362.6,1309.1,1371.7,1300.7,1364.3z"/>
<path class="st1" d="M1224.5,1240.6l-5.4-1.4c-0.2-0.1-0.5-0.1-0.7,0l-5.4,1.5c-0.8,0.2-1.6-0.4-1.7-1.2l-0.4-5.6
	c0-0.2-0.1-0.5-0.2-0.7l-3.1-4.7c-0.5-0.7-0.2-1.7,0.6-2l5.2-2.1c0.2-0.1,0.4-0.2,0.6-0.4l3.5-4.4c0.5-0.7,1.5-0.7,2.1,0l3.6,4.3
	c0.2,0.2,0.3,0.3,0.6,0.4l5.3,1.9c0.8,0.3,1.1,1.3,0.7,2l-3,4.8c-0.1,0.2-0.2,0.4-0.2,0.7l-0.2,5.6
	C1226.1,1240.2,1225.3,1240.8,1224.5,1240.6z"/>
<g>
	<circle class="st1" cx="1173.7" cy="1216.1" r="7.5"/>
	<circle class="st1" cx="1156.1" cy="1210.3" r="5"/>
	<circle class="st1" cx="1142.3" cy="1206.1" r="2.8"/>
	<circle class="st1" cx="1131.5" cy="1202.9" r="1.8"/>
</g>
<g>
	<circle class="st1" cx="1219.3" cy="1185" r="7.5"/>
	<circle class="st1" cx="1219.7" cy="1166.5" r="5"/>
	<circle class="st1" cx="1219.6" cy="1152" r="2.8"/>
	<circle class="st1" cx="1219.6" cy="1140.8" r="1.8"/>
</g>
<g>
	<circle class="st1" cx="1264.1" cy="1217.4" r="7.5"/>
	<circle class="st1" cx="1282" cy="1212.5" r="5"/>
	<circle class="st1" cx="1295.9" cy="1208.3" r="2.8"/>
	<circle class="st1" cx="1306.6" cy="1205.1" r="1.8"/>
</g>
<g>
	<circle class="st1" cx="1189.4" cy="1268.3" r="7.5"/>
	<circle class="st1" cx="1178.1" cy="1283" r="5"/>
	<circle class="st1" cx="1169.6" cy="1294.7" r="2.8"/>
	<circle class="st1" cx="1163" cy="1303.7" r="1.8"/>
</g>
<g>
	<circle class="st1" cx="1243" cy="1267.6" r="7.5"/>
	<circle class="st1" cx="1253.3" cy="1283" r="5"/>
	<circle class="st1" cx="1261.7" cy="1294.8" r="2.8"/>
	<circle class="st1" cx="1268.1" cy="1304" r="1.8"/>
</g>
</svg>
