<?xml version="1.0" encoding="utf-8"?>
<!-- Generator: Adobe Illustrator 25.4.1, SVG Export Plug-In . SVG Version: 6.00 Build 0)  -->
<svg version="1.1" id="Layer_1" xmlns="http://www.w3.org/2000/svg" xmlns:xlink="http://www.w3.org/1999/xlink" x="0px" y="0px"
	 viewBox="0 0 6842 4596" style="enable-background:new 0 0 6842 4596;" xml:space="preserve">
<style type="text/css">
	.st0{fill:url(#SVGID_1_);}
	.st1{fill:url(#SVGID_00000073716927501841534000000012377326990438422684_);}
	.st2{fill:#BAA67D;}
	.st3{fill:#B7E1E1;}
	.st4{fill:#F6F5F6;}
	.st5{fill:#5DB8C1;}
	.st6{fill:#F7EFF1;}
	.st7{fill:#E1BF85;stroke:#231F20;stroke-miterlimit:10;}
	.st8{fill:#FFFFFF;stroke:#231F20;stroke-miterlimit:10;}
	.st9{fill:none;stroke:#231F20;stroke-miterlimit:10;}
	.st10{fill:#2C318B;stroke:#231F20;stroke-miterlimit:10;}
	.st11{fill:#659DBD;}
	.st12{fill:#649CBC;}
</style>
<g>
	<linearGradient id="SVGID_1_" gradientUnits="userSpaceOnUse" x1="3439.0315" y1="0" x2="3439.0315" y2="2178.7927">
		<stop  offset="0" style="stop-color:#FFFFFF"/>
		<stop  offset="1" style="stop-color:#B0D8E2"/>
	</linearGradient>
	<path class="st0" d="M6877.94,0v2178.79h-12.36v-329.95c-116.71,104.52-296.28,5.7-447.63,39.31
		c-65.98,14.65-119.29,64.96-183.37,86.64c-86.98,29.44-181.33,3.17-269.81-21.05c-139.85-38.24-281.1-71.11-423.34-98.52
		c-248.71-47.92-506.02-78.91-753.69-25.65c-104.78,22.56-206.26,59.88-311.58,79.61c-97.01,18.18-196.02,21.16-294.56,23.44
		c-216.9,5.08-433.91,7.07-650.81,1.69c-176.96-4.38-353.78-13.69-530.56-23c-42.7-2.25-85.36-4.49-128.06-6.74
		c-199.13-10.49-398.27-20.94-597.55-27.79c-46.89-1.62-94.03-3.02-140.6,2.91c-70.68,8.98-138.34,34.6-208.3,48.29
		c-213.43,41.7-434.23-29.37-650.02-3.42c-176.35,21.2-355.46,106.33-524.4,50.2c-46.68-15.46-89.63-41.18-136.3-56.53
		c-197.16-64.81-411.34,65.36-614.85,27.09V0L6877.94,0z"/>
</g>
<g>
	
		<radialGradient id="SVGID_00000017489172529383383200000012531702797568628099_" cx="4399.7827" cy="-22.7204" r="90" gradientTransform="matrix(2.1497 0 0 2.1497 -3108.146 501.2583)" gradientUnits="userSpaceOnUse">
		<stop  offset="0" style="stop-color:#FFFFFF"/>
		<stop  offset="1" style="stop-color:#FFFF00"/>
	</radialGradient>
	<circle style="fill:url(#SVGID_00000017489172529383383200000012531702797568628099_);" cx="6349.96" cy="452.42" r="193.47"/>
</g>
<g>
	<path class="st2" d="M6879.6,1577.11v2073.17H0.11V1693.95c0.57,0.13,1.11,0.27,1.69,0.36c203.87,46.5,418.44-111.65,615.95-32.91
		c46.76,18.65,89.79,49.9,136.55,68.68c169.24,68.19,348.67-35.23,525.34-60.99c216.18-31.52,437.38,54.82,651.19,4.16
		c70.09-16.63,137.88-47.75,208.68-58.66c46.65-7.2,93.88-5.5,140.85-3.53c199.64,8.32,399.13,21.02,598.62,33.76
		c42.78,2.73,85.52,5.46,128.29,8.18c177.1,11.31,354.23,22.63,531.51,27.95c217.29,6.53,434.69,4.11,651.98-2.06
		c98.72-2.77,197.91-6.39,295.09-28.48c105.51-23.97,207.17-69.31,312.14-96.72c248.12-64.7,505.89-27.05,755.05,31.17
		c142.5,33.31,284,73.24,424.11,119.7c88.64,29.42,183.16,61.35,270.3,25.58c64.2-26.34,117.6-87.46,183.7-105.26
		C6582.79,1584.04,6762.69,1704.1,6879.6,1577.11z"/>
</g>
<g>
	<path class="st3" d="M6861.4,3250.02c-238.19-24.62-437.85-16.14-784.5-30.09c-306.2-12.32-427.59-19.91-716.44,8.21
		c-92.07,8.97-566.99-46.23-630.47-27.35c-258.25,76.74-375.89,58.78-759.43-10.03c-70.45-12.65-283.17,14.27-365.38,7.29
		c-284.58-24.16-559.95-43.59-845.4-20.06c-285.54,23.51-583.16,29.57-856.14-1.82c-218.23-25.09-366.67,11.39-601.81-0.91
		c-86.49-4.52-177.46-4.67-265.08-1.82c-298.79,9.71-779.76,35.14-1056.75,64.73l4.28-439.09
		c138.14-18.08,398.56-76.95,629.66-22.27c199.14,47.12,519.28-42.19,789.48-51.25c132.79-4.45,281.61-5.87,385.63,15.19
		c62.34,12.62,99.48,31.79,162.78,44.11c148.91,28.94,364.01,9.39,534.11-11.06c195.56-23.53,391.12-47.06,586.68-70.57
		c224.16-26.96,502.85-5.44,713.54-38.96c269.35-42.85,384.75,63.11,632.63,67.03c97.55,1.54,193.03-7.02,287.37-13.54
		c240.9-16.62,491.91-24.18,741.87-22.31c41.68,0.3,85.01,0.98,121.8,5.89c44.73,5.93,73.32,17.14,106.11,26.79
		c82.74,24.36,211.86,40.74,338.29,35.72c170.71-6.8,317.01-49.97,483.89-38.7c127.64,8.63,219.27,47.84,349.18,41.56
		L6861.4,3250.02z"/>
	<g>
		<path class="st4" d="M6861.4,3247.52c-244.87-24.91-491.83-19.46-737.54-28.3c-134.1-4.83-268.21-12.57-402.44-12.84
			c-121.94-0.25-242.23,11.09-363.69,19.5c-66.91,4.63-135.79-3.78-202.46-8.61c-91.68-6.64-183.3-14.4-275.08-19.51
			c-60.38-3.36-118.88-8.18-177.39,8.31c-92.4,26.04-186.54,43.08-282.8,42.26c-115.05-0.98-229.45-21.43-342.47-41.11
			c-52.29-9.1-104.29-21.92-157.56-22.36c-51.81-0.43-103.67,3.5-155.35,6.58c-49.18,2.93-98.96,7.17-148.25,4.83
			c-75.55-3.59-151.06-12.4-226.54-17.58c-160.17-10.98-320.81-17.28-481.34-11.79c-159,5.44-317.24,22.64-476.38,26.72
			c-155.39,3.98-311.19,1.05-466.01-13.44c-71.93-6.74-143.12-15.03-215.48-15.5c-65.4-0.42-130.71,3.29-196.01,6.39
			c-153.06,7.26-305.26-4.03-458.28-1.57c-252.57,4.06-505.59,19.54-757.57,36.49c-60.95,4.1-121.88,8.52-182.77,13.46
			c-52.28,4.24-108.69,3.9-160.08,14.56c-14.53,3.01-10.34,6.44-13.32-3.48c-2.37-7.92,0.2-20.57,0.28-28.78
			c0.31-32.03,0.62-64.07,0.94-96.1c0.76-77.58,1.51-155.15,2.27-232.73c0.17-17.75-6-50.42,0.65-67.16
			c3.35-8.43-0.16-4.88,12.69-6.23c24.93-2.61,49.8-7.52,74.57-11.39c137.01-21.4,275.78-39.33,414.65-28.07
			c64.43,5.22,126.28,23.47,190.36,29.68c60.02,5.81,120.69,3.2,180.67-1.76c140.22-11.59,278.86-37.03,418.81-51.1
			c140.94-14.16,286.73-18.32,427.91-5.26c69.36,6.42,132.22,25.84,198.76,44.58c58.63,16.51,119.33,22.81,180.04,24.94
			c138.46,4.86,277.14-10,414.4-26.49c163.73-19.67,327.45-39.4,491.17-59.09c145.99-17.55,290.71-24.19,437.68-26.76
			c70.58-1.23,141.21-2.56,211.68-6.91c67.44-4.17,133.52-15.79,200.65-22.02c123.18-11.44,238.2,16.17,357.06,43.81
			c130.53,30.35,258.42,33.33,391.91,24.77c159.06-10.2,317.83-21.17,477.18-26.08c81.55-2.51,163.14-4.01,244.72-4.52
			c78.05-0.48,157.57-3.67,235.39,3.51c63.98,5.9,122.61,30.33,185.11,43.14c66.93,13.72,135.44,20.55,203.69,22.32
			c153.6,3.98,302.92-31.99,455.63-39.72c77.64-3.93,153.61,3.36,229.94,17.49c64.36,11.91,128.46,24.85,194.18,25.25
			c15.88,0.1,24.29-8.02,29.37,2.91c2.78,5.98,0.55,18.96,0.74,25.46c0.89,30.59,1.79,61.18,2.68,91.77
			c2.31,78.92,4.61,157.83,6.92,236.75c1.2,41.09,2.4,82.19,3.6,123.28c0.09,3.21,5.09,3.22,5,0
			c-4.71-161.11-9.41-322.21-14.12-483.32c-0.04-1.31-1.11-2.55-2.5-2.5c-114.58,4.27-223.31-31.08-336.54-40.6
			c-119.89-10.09-238.36,10.57-356.9,25.34c-125.7,15.66-251.67,18.41-377.13-1.43c-47.82-7.56-93.38-20.23-139.67-33.95
			c-49.58-14.7-99.76-19.02-151.29-20.14c-257.45-5.62-516.19,3.83-773.03,21.39c-121.27,8.29-244.18,21.84-365.65,9.88
			c-93.82-9.24-183.57-36.85-275.6-55.54c-92.84-18.86-185.89-22.14-279.73-8.24c-112.49,16.66-225.76,20.37-339.32,22.47
			c-111.94,2.08-224.19,2.46-335.77,12.7c-128.62,11.81-256.9,30.24-385.13,45.66c-230.27,27.7-467.62,70.77-700.24,51.26
			c-104.3-8.75-199.51-52.22-303.05-64.13c-114.59-13.18-232.11-10.51-347.13-4.89c-217.3,10.6-432.16,68.79-650.22,63.75
			c-102.01-2.36-199.9-33.31-302.4-35.78c-105.03-2.54-209.71,9.25-313.41,24.83c-43.6,6.55-87.09,13.96-130.8,19.81
			c-1.35,0.18-2.49,1-2.5,2.5c-1.43,146.36-2.85,292.73-4.28,439.09c-0.01,1.25,1.16,2.64,2.5,2.5
			c225.13-23.85,451.54-36.83,677.58-48.48c111.86-5.77,223.77-10.8,335.71-14.77c139.58-4.95,278.13,3.39,417.57,2.94
			c124.58-0.4,248.89-13.64,373.51-10.11c141.96,4.02,282.81,25.38,425.08,28.78c296.39,7.09,590.52-33.46,886.6-28.64
			c149.7,2.44,299.12,12.82,448.29,25.08c100.33,8.24,197.64,1.47,298.01-3.45c203.16-9.96,399.63,65.27,603.73,61.16
			c84.74-1.71,167.89-17.35,249.42-39.87c60.01-16.58,115.74-14.26,177.87-10.92c154.15,8.3,309.33,30.83,463.81,29.24
			c101.7-1.05,203.57-17.01,305.53-19.41c111.11-2.62,222.21,1.66,333.22,6.12c244.46,9.84,489.63,8.61,733.88,22.27
			c50.62,2.83,101.15,6.79,151.59,11.92C6864.59,3252.84,6864.57,3247.84,6861.4,3247.52z"/>
	</g>
</g>
<g>
	<path class="st5" d="M-55.41,3935.93l-0.39-794.03c281.42-98.32,591.62-232.83,881.55-133.48c82.97,28.43,175.29,9.1,268.04-0.94
		c263.67-28.54,149.99,44.6,1023.54,62c355.26,7.07,50.89,27.93,778.56-8.17c206.95-10.27,618.39-134.13,717,6.81
		c8.29,11.85,171.45,47,228.14,34.06c255.22-58.25,718.86,64.35,937.9,44.96c208.04-18.42,125.62,20.36,292.8,18.01
		c384.15-5.4,614.66-8.3,925.75,32.63c352.19,46.35,654.25-76.57,896.25,5.22l3.62,732.95"/>
	<g>
		<path class="st6" d="M-52.91,3935.93c-0.1-203.78-0.2-407.57-0.3-611.35c-0.02-47.42-0.05-94.84-0.07-142.25
			c0-9.26-3.19-25.37-0.02-34.14c6.2-17.13,60.33-25.92,79.87-32.93c232.96-83.52,488.19-180.41,738.67-121.64
			c58.84,13.8,110.17,33.25,171.63,32.03c56.69-1.13,112.81-11.28,169.13-16.94c32.15-3.24,64.46-5.54,96.8-5.23
			c56.01,0.54,111.09,10.83,166.31,19.13c283.98,42.68,570.72,39.89,856.87,52.66c47.78,2.13,95.44,7.69,143.25,8.87
			c101.84,2.5,204.32-4.93,305.98-9.66c100.17-4.66,201.36-5.64,300.91-18.34c85.43-10.9,170.16-26.62,255.52-38.02
			c85.03-11.36,174.14-22.22,259.6-9.03c32.63,5.04,66.39,14.16,93.37,33.95c17.3,12.69,24.44,28.51,44.97,35.51
			c59.99,20.45,138.31,35.59,201.7,27.77c38.32-4.73,75.55-13.29,114.35-15.64c45.95-2.78,92.07-2.18,138.03-0.03
			c191.12,8.95,379.45,46.33,570.24,58.52c81.61,5.22,162.88-9.61,244.02-3.67c47.64,3.49,91.34,20.72,139.84,21.99
			c222.36,5.85,444.38-7.87,666.83,4.93c104.67,6.02,208.32,18.28,312.42,30.23c120.5,13.84,241.79,8.36,362.27-2.59
			c107.82-9.8,215.89-24.79,324.37-23.36c49.9,0.66,99.95,5.13,148.54,16.91c6.21,1.5,36.28,6.34,39.07,10.74
			c1.27,2-0.41,7.3,0.05,9.6c6.77,33.81,0.37,75.77,0.54,110.11c0.31,62.28,0.62,124.57,0.92,186.85
			c0.59,120.26,1.19,240.51,1.78,360.77c0.11,21.42,0.21,42.84,0.32,64.25c0.02,3.22,5.02,3.22,5,0
			c-1.06-214.01-2.11-428.02-3.17-642.04c-0.15-30.3-0.3-60.61-0.45-90.91c-0.01-1.14-0.78-2.07-1.84-2.41
			c-140.4-45.86-291.3-27.54-435.36-13.22c-84.04,8.35-168.16,16.52-252.65,18.32c-88.88,1.89-175.56-6.8-263.64-17.25
			c-150.71-17.89-302.17-26.26-453.9-28.23c-78.91-1.03-157.84-0.63-236.75,0.16c-81.91,0.82-166.12,8.15-247.77,0.31
			c-31.22-3-60.11-14.47-91-18.62c-56.87-7.64-114.25,3.24-171.14,4.52c-129.65,2.91-260.06-19.61-388.36-35.31
			c-137.6-16.84-277.97-34.78-416.81-25.01c-53.92,3.79-105.91,19.2-160.11,14.8c-29.15-2.37-58.17-6.93-86.83-12.66
			c-21.06-4.21-52.28-7.15-70.97-19.11c-11.95-7.65-20.06-21.86-31.95-30.54c-16.38-11.95-35.37-19.97-54.71-25.74
			c-50.8-15.16-105.8-15.68-158.31-13.47c-128.57,5.4-255.06,32.29-382.28,49.54c-137.88,18.7-278.93,19.06-417.85,24.96
			c-64.95,2.76-130.13,6.21-195.17,5.31c-100.65-1.39-201.37-10.92-302.14-13.2c-228.23-5.17-458.1-12.55-684.38-45.1
			c-83.62-12.03-164.4-26.44-249.26-20.51c-53.91,3.77-107.27,12.63-161.07,17.43c-48.1,4.29-96.73,4.87-143.65-8.18
			c-44.04-12.25-86.53-25.8-132.08-32.1c-174.1-24.1-349.54,20.35-513.87,74.43c-83.52,27.49-165.88,58.32-248.85,87.41
			c-1.05,0.37-1.84,1.26-1.84,2.41c0.11,231.63,0.23,463.26,0.34,694.89c0.02,33.05,0.03,66.1,0.05,99.15
			C-57.91,3939.15-52.91,3939.16-52.91,3935.93L-52.91,3935.93z"/>
	</g>
</g>
<g>
	<rect x="831.21" y="1410.85" class="st7" width="1026.87" height="716.74"/>
	<path class="st8" d="M1466.98,2127.59h-244.66v-272.44c0-3.69,2.99-6.68,6.68-6.68h231.48c3.59,0,6.49,2.91,6.49,6.49V2127.59z"/>
	<rect x="514.19" y="945.66" class="st7" width="317.02" height="1181.94"/>
	<rect x="1858.09" y="945.66" class="st7" width="317.02" height="1181.94"/>
	<path class="st8" d="M2084.56,1235.11h-135.92v-151.35c0-2.05,1.66-3.71,3.71-3.71h128.6c1.99,0,3.61,1.62,3.61,3.61V1235.11z"/>
	<polygon class="st7" points="897.34,941.34 668.94,941.34 440.53,941.34 554.73,743.54 668.94,545.73 783.14,743.54 	"/>
	<polygon class="st7" points="2245,941.34 2016.6,941.34 1788.19,941.34 1902.39,743.54 2016.6,545.73 2130.8,743.54 	"/>
	<path class="st7" d="M1033.17,1409.52H840.06c-3.02,0-5.5-2.47-5.5-5.49v-193.11c0-3.02,2.47-5.49,5.5-5.49h193.11
		c3.02,0,5.5,2.47,5.5,5.49v193.11C1038.67,1407.05,1036.2,1409.52,1033.17,1409.52z"/>
	<path class="st8" d="M1242.75,1244.69v125.54c0,3.93-0.59,7.76-1.67,11.36c-1.11-3.6-1.7-7.43-1.7-11.36v-125.54
		c0-3.93,0.59-7.76,1.7-11.36C1242.17,1236.93,1242.75,1240.76,1242.75,1244.69z"/>
	<path class="st7" d="M1645.48,1409.52h-193.11c-3.02,0-5.5-2.47-5.5-5.49v-193.11c0-3.02,2.47-5.49,5.5-5.49h193.11
		c3.02,0,5.49,2.47,5.49,5.49v193.11C1650.97,1407.05,1648.5,1409.52,1645.48,1409.52z"/>
	<path class="st7" d="M1849.58,1409.52h-193.11c-3.02,0-5.5-2.47-5.5-5.49v-193.11c0-3.02,2.47-5.49,5.5-5.49h193.11
		c3.02,0,5.5,2.47,5.5,5.49v193.11C1855.08,1407.05,1852.6,1409.52,1849.58,1409.52z"/>
	<line class="st9" x1="668.94" y1="321.95" x2="668.94" y2="545.73"/>
	<line class="st9" x1="2016.6" y1="341" x2="2016.6" y2="564.79"/>
	<polygon class="st10" points="672.21,486.68 576.98,432.94 481.75,379.2 575.91,323.6 670.06,268.01 671.14,377.35 	"/>
	<polygon class="st10" points="2013.32,486.69 2013.32,377.35 2013.32,268 2108.02,322.67 2202.71,377.35 2108.02,432.02 	"/>
	<path class="st8" d="M1102.52,1876.74c5.19-2.02,7.61-6.52,7.61-11.02c0-2.6-0.81-5.21-2.37-7.31h0.14l-14.97-26.68l-9.8-17.48
		l-22.44-40c-10.35-18.43-28.77-27.64-47.2-27.64s-36.85,9.21-47.2,27.64l-24.78,44.15l-12.08,21.55l-6.43,11.46
		c-1.72,3.07-4.11,5.79-7.16,7.55c-3.79,2.19-5.79,6.28-5.79,10.36c0,4.67,2.6,9.33,8.07,11.2c5.24,1.8,8.08,6.53,8.08,11.32
		c0,3.63-1.64,7.29-5.09,9.71c-9.75,6.85-4.46,21.69,6.65,21.69c0.66,0,1.34-0.05,2.03-0.16c7.63-1.18,13.78,4.88,13.78,11.76
		c0,1.81-0.43,3.67-1.35,5.47c-4.48,8.69,2.52,17.45,10.62,17.45c2.34,0,4.79-0.73,7.07-2.42c2.2-1.63,4.65-2.37,7.05-2.37
		c6.14,0,11.91,4.84,11.96,11.86c0.05,7.46,6.04,11.84,12.05,11.84c4.16,0,8.35-2.11,10.59-6.75c2.16-4.48,6.44-6.73,10.74-6.73
		c4.13,0,8.25,2.08,10.5,6.3c5.87,11,22.44,6.69,22.44-5.57c0-0.16-0.01-0.3-0.01-0.46c-0.33-9.73,10.54-15.73,18.6-10.25
		c8.54,5.8,18.7-1.08,18.7-9.79c0-1.94-0.51-3.97-1.64-5.96c-4.58-8.06,1.37-17.8,10.29-17.8c0.47,0,0.94,0.03,1.42,0.08
		c8.02,0.91,13.3-5.49,13.3-12.01c0-3.68-1.69-7.4-5.52-9.86c-3.71-2.37-5.49-6.19-5.49-9.99
		C1094.9,1883.26,1097.53,1878.68,1102.52,1876.74z"/>
	<path class="st8" d="M1754.95,1876.74c5.19-2.02,7.61-6.52,7.61-11.02c0-2.6-0.81-5.21-2.37-7.31h0.14l-14.97-26.68l-9.8-17.48
		l-22.44-40c-10.35-18.43-28.77-27.64-47.2-27.64s-36.85,9.21-47.2,27.64l-24.78,44.15l-12.08,21.55l-6.43,11.46
		c-1.72,3.07-4.11,5.79-7.16,7.55c-3.79,2.19-5.79,6.28-5.79,10.36c0,4.67,2.6,9.33,8.07,11.2c5.24,1.8,8.08,6.53,8.08,11.32
		c0,3.63-1.64,7.29-5.09,9.71c-9.75,6.85-4.46,21.69,6.65,21.69c0.66,0,1.34-0.05,2.03-0.16c7.63-1.18,13.78,4.88,13.78,11.76
		c0,1.81-0.43,3.67-1.35,5.47c-4.48,8.69,2.52,17.45,10.62,17.45c2.34,0,4.79-0.73,7.07-2.42c2.2-1.63,4.65-2.37,7.05-2.37
		c6.14,0,11.91,4.84,11.96,11.86c0.05,7.46,6.04,11.84,12.05,11.84c4.16,0,8.35-2.11,10.59-6.75c2.16-4.48,6.44-6.73,10.74-6.73
		c4.13,0,8.25,2.08,10.5,6.3c5.87,11,22.44,6.69,22.44-5.57c0-0.16-0.01-0.3-0.01-0.46c-0.33-9.73,10.54-15.73,18.6-10.25
		c8.54,5.8,18.7-1.08,18.7-9.79c0-1.94-0.51-3.97-1.64-5.96c-4.58-8.06,1.37-17.8,10.29-17.8c0.47,0,0.94,0.03,1.42,0.08
		c8.02,0.91,13.3-5.49,13.3-12.01c0-3.68-1.69-7.4-5.52-9.86c-3.71-2.37-5.49-6.19-5.49-9.99
		C1747.33,1883.26,1749.96,1878.68,1754.95,1876.74z"/>
	<path class="st8" d="M2127.2,1650.47c5.19-2.02,7.61-6.52,7.61-11.02c0-2.6-0.81-5.21-2.37-7.31h0.14l-14.97-26.68l-9.8-17.48
		l-22.44-40c-10.35-18.43-28.77-27.64-47.2-27.64s-36.85,9.21-47.2,27.64l-24.78,44.15l-12.08,21.55l-6.43,11.46
		c-1.72,3.07-4.11,5.79-7.16,7.55c-3.79,2.19-5.79,6.28-5.79,10.36c0,4.67,2.6,9.33,8.07,11.2c5.24,1.8,8.08,6.53,8.08,11.32
		c0,3.63-1.64,7.29-5.09,9.71c-9.75,6.85-4.46,21.69,6.65,21.69c0.66,0,1.34-0.05,2.03-0.16c7.63-1.18,13.78,4.88,13.78,11.76
		c0,1.81-0.43,3.67-1.35,5.47c-4.48,8.69,2.52,17.45,10.62,17.45c2.34,0,4.79-0.73,7.07-2.42c2.2-1.63,4.65-2.37,7.05-2.37
		c6.14,0,11.91,4.84,11.96,11.86c0.05,7.46,6.04,11.84,12.05,11.84c4.16,0,8.35-2.11,10.59-6.75c2.16-4.48,6.44-6.73,10.74-6.73
		c4.13,0,8.25,2.08,10.5,6.3c5.87,11,22.44,6.69,22.44-5.57c0-0.16-0.01-0.3-0.01-0.46c-0.33-9.73,10.54-15.73,18.6-10.25
		c8.54,5.8,18.7-1.08,18.7-9.79c0-1.94-0.51-3.97-1.64-5.96c-4.58-8.06,1.37-17.8,10.29-17.8c0.47,0,0.94,0.03,1.42,0.08
		c8.02,0.91,13.3-5.49,13.3-12.01c0-3.68-1.69-7.4-5.52-9.86c-3.71-2.37-5.49-6.19-5.49-9.99
		C2119.59,1656.99,2122.22,1652.4,2127.2,1650.47z"/>
	<path class="st8" d="M746.92,1666.76c5.19-2.02,7.61-6.52,7.61-11.02c0-2.6-0.81-5.21-2.37-7.31h0.14l-14.97-26.68l-9.8-17.48
		l-22.44-40c-10.35-18.43-28.77-27.64-47.2-27.64c-18.43,0-36.85,9.21-47.2,27.64l-24.78,44.15l-12.08,21.55l-6.43,11.46
		c-1.72,3.07-4.11,5.79-7.16,7.55c-3.79,2.19-5.79,6.28-5.79,10.36c0,4.67,2.6,9.33,8.07,11.2c5.24,1.8,8.08,6.53,8.08,11.32
		c0,3.63-1.64,7.29-5.09,9.71c-9.75,6.85-4.46,21.69,6.65,21.69c0.66,0,1.34-0.05,2.03-0.16c7.63-1.18,13.78,4.88,13.78,11.76
		c0,1.81-0.43,3.67-1.35,5.47c-4.48,8.69,2.52,17.45,10.62,17.45c2.34,0,4.79-0.73,7.07-2.42c2.2-1.63,4.65-2.37,7.05-2.37
		c6.14,0,11.91,4.84,11.96,11.86c0.05,7.46,6.04,11.84,12.05,11.84c4.16,0,8.35-2.11,10.59-6.75c2.16-4.48,6.44-6.73,10.74-6.73
		c4.13,0,8.25,2.08,10.5,6.3c5.87,11,22.44,6.69,22.44-5.57c0-0.16-0.01-0.3-0.01-0.46c-0.33-9.73,10.54-15.73,18.6-10.25
		c8.54,5.8,18.7-1.08,18.7-9.79c0-1.94-0.51-3.97-1.64-5.96c-4.58-8.06,1.37-17.8,10.29-17.8c0.47,0,0.94,0.03,1.42,0.08
		c8.02,0.91,13.3-5.49,13.3-12.01c0-3.68-1.69-7.4-5.52-9.86c-3.71-2.37-5.49-6.19-5.49-9.99
		C739.31,1673.28,741.94,1668.7,746.92,1666.76z"/>
	<path class="st8" d="M735.14,1080.05H610.42c-3.14,0-5.68,2.54-5.68,5.68v149.39h135.92v-149.55
		C740.66,1082.52,738.19,1080.05,735.14,1080.05z"/>
	<path class="st7" d="M1441.45,1408.85h-193.11c-3.02,0-5.5-2.47-5.5-5.5v-193.11c0-3.02,2.47-5.5,5.5-5.5h193.11
		c3.02,0,5.5,2.47,5.5,5.5v193.11C1446.95,1406.38,1444.48,1408.85,1441.45,1408.85z"/>
	<path class="st7" d="M1238.01,1408.85H1044.9c-3.02,0-5.49-2.47-5.49-5.5v-193.11c0-3.02,2.47-5.5,5.49-5.5h193.11
		c3.02,0,5.5,2.47,5.5,5.5v193.11C1243.51,1406.38,1241.03,1408.85,1238.01,1408.85z"/>
</g>
<g>
	<path class="st11" d="M-19.25,3485.83v1110.11h6879.5V3548.39c-0.57,0.07-1.11,0.14-1.69,0.19
		c-203.87,24.9-418.44-59.79-615.95-17.62c-46.76,9.98-89.79,26.72-136.55,36.78c-169.24,36.51-348.67-18.87-525.34-32.66
		c-216.18-16.88-437.38,29.35-651.19,2.23c-70.09-8.91-137.88-25.57-208.68-31.41c-46.65-3.85-93.88-2.94-140.85-1.89
		c-199.64,4.45-399.13,11.25-598.62,18.08c-42.78,1.46-85.52,2.92-128.29,4.38c-177.1,6.06-354.23,12.11-531.51,14.96
		c-217.29,3.5-434.69,2.2-651.98-1.1c-98.72-1.48-197.91-3.42-295.09-15.25c-105.51-12.83-207.17-37.11-312.14-51.79
		c-248.12-34.65-505.89-14.49-755.05,16.69c-142.5,17.84-284.01,39.22-424.11,64.09c-88.64,15.75-183.16,32.85-270.3,13.7
		c-64.2-14.1-117.6-46.83-183.7-56.36C277.57,3489.54,97.67,3553.83-19.25,3485.83z"/>
</g>
<g>
	<path class="st12" d="M1310.63,8540.28"/>
</g>
<g>
	<path class="st12" d="M2768.58,8546.73"/>
</g>
<g>
	<path class="st12" d="M3979.37,8576.84"/>
</g>
<g>
	<path class="st12" d="M-11.2,4725.48l4.28-352.68c138.14-14.52,398.56-61.81,629.66-17.89c199.14,37.85,519.28-33.89,789.48-41.17
		c132.79-3.58,281.61-4.71,385.63,12.2c62.34,10.14,99.48,25.53,162.78,35.43c148.91,23.25,364,7.54,534.11-8.88
		c195.56-18.9,391.12-37.8,586.68-56.68c224.16-21.66,502.85-4.37,713.54-31.29c269.35-34.42,384.75,50.69,632.63,53.84
		c97.55,1.24,193.03-5.64,287.37-10.87c240.9-13.35,491.91-19.42,741.87-17.92c41.68,0.24,85.01,0.79,121.8,4.73
		c44.73,4.76,73.32,13.77,106.11,21.52c82.74,19.56,211.86,32.72,338.29,28.69c170.71-5.46,317.01-40.14,483.89-31.08
		c127.64,6.93,219.27,38.43,349.18,33.38L6870.2,4735"/>
</g>
</svg>
